<svg id="Icon_Outline_Shop" data-name="Icon/Outline/Shop" xmlns="http://www.w3.org/2000/svg" width="24" height="24" viewBox="0 0 24 24">
  <rect id="Container" width="24" height="24" fill="none"/>
  <path id="Shop" d="M12610.41,21193.947c-1.792-1.287-2.154-3.83-2.154-7.521,0-.607.011-1.166.027-1.654a.751.751,0,1,1,1.5.059c-.017.473-.027,1.01-.027,1.6,0,3.744.432,5.516,1.527,6.3,1.181.846,3.436.846,6.846.846s5.681,0,6.856-.846c1.1-.793,1.532-2.559,1.532-6.3,0-.6-.011-1.133-.027-1.6a.748.748,0,1,1,1.5-.059c.021.479.032,1.037.032,1.654,0,3.691-.362,6.234-2.154,7.521-1.575,1.127-3.894,1.127-7.734,1.127S12611.979,21195.074,12610.41,21193.947Zm12.5-10.777h-11.293a3.6,3.6,0,0,1-3.116-5.42l1.377-2.379a.746.746,0,0,1,.644-.371h15.245a.748.748,0,0,1,.654.389l1.346,2.426a3.608,3.608,0,0,1-3.159,5.355Zm1.7-1.5a2.108,2.108,0,0,0,1.846-3.133l-1.128-2.037h-3.641l1.761,5.17Zm-2.747,0-1.761-5.17h-3.736a.747.747,0,0,1-.049.3l-1.844,4.867Zm-12.067-3.164a2.111,2.111,0,0,0,1.824,3.164h1.248l1.964-5.17h-3.871Z" transform="translate(-12606.109 -21173.039)" fill="#2c2c2c"/>
</svg>
