<svg id="Icon_Outline_Bell_ring" data-name="Icon/Outline/Bell ring" xmlns="http://www.w3.org/2000/svg" width="24" height="24" viewBox="0 0 24 24">
  <rect id="Container" width="24" height="24" fill="none"/>
  <path id="Bell_ring" data-name="Bell ring" d="M13010.089,21887a2.145,2.145,0,0,1-2.088-2.289,2.36,2.36,0,0,1,.5-1.479,2,2,0,0,1,1.593-.73h18.368a1.937,1.937,0,0,1,1.565.758,2.47,2.47,0,0,1,.478,1.488,2.445,2.445,0,0,1-.478,1.488,1.937,1.937,0,0,1-1.565.764Zm-.423-2.822a.857.857,0,0,0-.165.533c0,.037,0,.791.588.791h18.368c.517,0,.544-.627.544-.754s-.027-.746-.544-.746h-18.368A.48.48,0,0,0,13009.666,21884.178Zm17.824-3.867a8.607,8.607,0,0,0-17,0,.749.749,0,0,1-1.488-.17,9.493,9.493,0,0,1,3.268-6.1,10.359,10.359,0,0,1,13.436.006,9.476,9.476,0,0,1,3.269,6.1.746.746,0,0,1-.659.828.474.474,0,0,1-.088.006A.743.743,0,0,1,13027.49,21880.311Zm-13.854-1.07a.751.751,0,0,1-.681-.814,3.351,3.351,0,0,1,1-2.213,3.011,3.011,0,0,1,2.247-.791.749.749,0,0,1,.72.746v.027a.751.751,0,0,1-.78.721,1.584,1.584,0,0,0-1.7,1.643.751.751,0,0,1-.744.684C13013.684,21879.242,13013.66,21879.242,13013.637,21879.24Zm4.861-8.74a.75.75,0,0,1,0-1.5h1.5a.75.75,0,1,1,0,1.5Z" transform="translate(-13007.25 -21866)" fill="#2c2c2c"/>
</svg>
