<svg id="Icon_Outline_Palette" data-name="Icon/Outline/Palette" xmlns="http://www.w3.org/2000/svg" width="24" height="24" viewBox="0 0 24 24">
  <rect id="Container" width="24" height="24" fill="none"/>
  <path id="Palette" d="M-1733.56,20228.232a9.289,9.289,0,0,1-3.442-7.494,9.716,9.716,0,0,1,2.818-6.879,9.492,9.492,0,0,1,6.8-2.859,11.674,11.674,0,0,1,5.58,1.4,9.378,9.378,0,0,1,3.5,3.184,4.046,4.046,0,0,1,.487,3.914,2.56,2.56,0,0,1-2.483,1.428,10.335,10.335,0,0,1-2.32-.377,8.427,8.427,0,0,0-1.787-.314c-.518,0-.645.162-.731.324-.32.631.086,1.051,1.549,2.078a8.916,8.916,0,0,1,1.863,1.578,2.59,2.59,0,0,1,.5,2.6,4.994,4.994,0,0,1-2.955,3.107,8.837,8.837,0,0,1-2.889.568h-.046c-.127.01-.254.016-.381.016A10.129,10.129,0,0,1-1733.56,20228.232Zm.442-13.322a8.235,8.235,0,0,0-2.381,5.828,7.829,7.829,0,0,0,2.889,6.332,8.558,8.558,0,0,0,5.118,1.928c.1,0,.2,0,.289,0l.051-.006c1.1-.066,3.671-.213,4.509-2.666.3-.867-.355-1.441-1.807-2.461a8.3,8.3,0,0,1-1.777-1.514,2.192,2.192,0,0,1-.239-2.473,2.118,2.118,0,0,1,2.061-1.146,9.5,9.5,0,0,1,2.143.359,9.342,9.342,0,0,0,1.965.336,1.081,1.081,0,0,0,1.142-.605,2.623,2.623,0,0,0-.421-2.451,9.255,9.255,0,0,0-7.8-3.869A8.007,8.007,0,0,0-1733.118,20214.91Zm1.868,9.088a1,1,0,0,1,1-1,1,1,0,0,1,1,1,1,1,0,0,1-1,1A1,1,0,0,1-1731.25,20224Zm-2-4a1,1,0,0,1,1-1,1,1,0,0,1,1,1,1,1,0,0,1-1,1A1,1,0,0,1-1733.25,20220Zm3-4a1,1,0,0,1,1-1,1,1,0,0,1,1,1,1,1,0,0,1-1,1A1,1,0,0,1-1730.25,20216Z" transform="translate(1739.25 -20209)" fill="#2c2c2c"/>
</svg>
