<svg id="Icon_Outline_Categories" data-name="Icon/Outline/Categories" xmlns="http://www.w3.org/2000/svg" width="24" height="24" viewBox="0 0 24 24">
  <rect id="Conatiner" width="24" height="24" fill="none"/>
  <path id="Categories" d="M10.653,15.012a4.424,4.424,0,1,1,4.423,4.423A4.429,4.429,0,0,1,10.653,15.012Zm1.5,0a2.923,2.923,0,1,0,2.922-2.924A2.926,2.926,0,0,0,12.154,15.012ZM0,15.012a4.424,4.424,0,1,1,4.423,4.423A4.429,4.429,0,0,1,0,15.012Zm1.5,0a2.923,2.923,0,1,0,2.922-2.924A2.926,2.926,0,0,0,1.5,15.012ZM10.653,4.424a4.424,4.424,0,1,1,4.423,4.424A4.428,4.428,0,0,1,10.653,4.424Zm1.5,0A2.923,2.923,0,1,0,15.076,1.5,2.926,2.926,0,0,0,12.154,4.424ZM0,4.424A4.424,4.424,0,1,1,4.423,8.848,4.428,4.428,0,0,1,0,4.424Zm1.5,0A2.923,2.923,0,1,0,4.423,1.5,2.926,2.926,0,0,0,1.5,4.424Z" transform="translate(2.25 2.281)" fill="#2c2c2c"/>
</svg>
