<svg id="Icon_Outline_Close_Square" data-name="Icon /Outline/Close Square" xmlns="http://www.w3.org/2000/svg" width="24" height="24" viewBox="0 0 24 24">
  <rect id="Container" width="24" height="24" fill="none"/>
  <path id="Cancle" d="M2.356,18.645C.728,17.015,0,14.5,0,10.5S.728,3.984,2.356,2.355,6.5,0,10.5,0s6.516.728,8.146,2.355S21,6.5,21,10.5s-.725,6.516-2.354,8.145S14.5,21,10.5,21,3.984,20.274,2.356,18.645ZM1.576,10.5c0,6.841,2.084,8.926,8.924,8.926s8.926-2.085,8.926-8.926S17.34,1.574,10.5,1.574,1.576,3.659,1.576,10.5Zm10.888,3.069L10.5,11.6l-1.959,1.96a.788.788,0,0,1-1.113-1.115l1.958-1.959L7.423,8.529A.788.788,0,0,1,8.539,7.416L10.5,9.376l1.958-1.958a.788.788,0,0,1,1.115,1.113L11.611,10.49l1.965,1.966a.787.787,0,1,1-1.113,1.113Z" transform="translate(1.5 1.5)" fill="#2c2c2c"/>
</svg>
