<svg id="Icon_Outline_Import" data-name="Icon/Outline/Import" xmlns="http://www.w3.org/2000/svg" width="24" height="24" viewBox="0 0 24 24">
  <rect id="Container" width="24" height="24" fill="none"/>
  <path id="Import" d="M14686.38,21602.111c-1.691-1.041-2.38-3.025-2.38-6.852,0-2.906.374-4.646,1.247-5.824a5.657,5.657,0,0,1,4.315-1.924.748.748,0,1,1,.136,1.49c-1.729.162-2.668.543-3.248,1.328-.656.885-.948,2.408-.948,4.93,0,3.23.482,4.846,1.664,5.572,1.263.775,3.48.775,6.837.775s5.567,0,6.831-.775c1.182-.727,1.664-2.342,1.664-5.572,0-2.521-.292-4.045-.948-4.93-.58-.785-1.519-1.166-3.248-1.328a.748.748,0,1,1,.136-1.49,5.657,5.657,0,0,1,4.315,1.924c.873,1.178,1.247,2.918,1.247,5.824,0,3.826-.688,5.811-2.38,6.852-1.627,1-4.012,1-7.617,1S14688.006,21603.109,14686.38,21602.111Zm6.967-5.789-2.917-2.928a.752.752,0,0,1,.006-1.062.742.742,0,0,1,1.057,0l1.638,1.643v-10.23a.751.751,0,0,1,1.5,0v10.225l1.632-1.637a.75.75,0,1,1,1.063,1.059l-2.887,2.9a.747.747,0,0,1-.143.123l-.017.01-.012.008a.751.751,0,0,1-.31.1h0l-.033,0h-.006a.249.249,0,0,1-.038,0A.747.747,0,0,1,14693.347,21596.322Z" transform="translate(-14682 -21581)" fill="#2c2c2c"/>
</svg>
