<svg id="Icon_Outline_Add_bag" data-name="Icon/Outline/Add bag" xmlns="http://www.w3.org/2000/svg" width="24" height="24" viewBox="0 0 24 24">
  <rect id="Container" width="24" height="24" fill="none"/>
  <path id="Add_bag" data-name="Add bag" d="M14966.055,21577.475c-1.3-1.307-1.874-3.18-2.659-6.1-.677-2.5-.487-4.381.574-5.762a6.484,6.484,0,0,1,3.824-2.172,5.081,5.081,0,0,1,10.082,0,6.484,6.484,0,0,1,3.824,2.172c1.062,1.381,1.251,3.266.574,5.762a.749.749,0,1,1-1.445-.395c.541-2.01.438-3.467-.32-4.457-1.062-1.387-3.568-2.064-7.674-2.064s-6.612.678-7.674,2.064c-.759.99-.861,2.447-.319,4.457.726,2.686,1.24,4.393,2.274,5.432s2.745,1.484,5.719,1.484c.747,0,1.425-.033,2.021-.086a.748.748,0,1,1,.146,1.488c-.655.064-1.364.1-2.166.1C14969.374,21579.4,14967.408,21578.838,14966.055,21577.475Zm6.737-16.973a3.561,3.561,0,0,0-3.419,2.656,26.944,26.944,0,0,1,3.462-.2,27.264,27.264,0,0,1,3.458.2,3.582,3.582,0,0,0-3.451-2.656A.425.425,0,0,0,14972.792,21560.5Zm5.908,17.773v-1.723h-1.771a.75.75,0,1,1,0-1.5h1.771v-1.723a.75.75,0,1,1,1.5,0v1.723h1.771a.75.75,0,1,1,0,1.5h-1.771v1.723a.75.75,0,0,1-1.5,0Zm-2.974-9a.75.75,0,0,1,0-1.5h.049a.75.75,0,0,1,0,1.5Zm-5.827,0a.75.75,0,1,1,0-1.5h.044a.75.75,0,1,1,0,1.5Z" transform="translate(-14960.861 -21557.199)" fill="#2c2c2c"/>
</svg>
