<svg id="Icon_Outline_Filter" data-name="Icon/Outline/Filter" xmlns="http://www.w3.org/2000/svg" width="24" height="24" viewBox="0 0 24 24">
  <rect id="Container" width="24" height="24" fill="none"/>
  <path id="Filter" d="M11.35,16.619a3.524,3.524,0,0,1-.815-2.658A3.523,3.523,0,0,1,11.35,11.3a3.523,3.523,0,0,1,2.656-.814,3.526,3.526,0,0,1,2.657.814,3.527,3.527,0,0,1,.815,2.657,3.528,3.528,0,0,1-.815,2.658,3.526,3.526,0,0,1-2.657.815A3.523,3.523,0,0,1,11.35,16.619Zm1.06-4.253a2.336,2.336,0,0,0-.376,1.6,2.337,2.337,0,0,0,.376,1.6,2.337,2.337,0,0,0,1.6.375,2.334,2.334,0,0,0,1.6-.375,2.337,2.337,0,0,0,.376-1.6,2.336,2.336,0,0,0-.376-1.6,2.333,2.333,0,0,0-1.6-.376A2.336,2.336,0,0,0,12.41,12.366ZM.75,14.711a.75.75,0,0,1,0-1.5H7.223a.75.75,0,0,1,0,1.5ZM.815,6.129A3.523,3.523,0,0,1,0,3.472,3.522,3.522,0,0,1,.815.815,3.524,3.524,0,0,1,3.473,0,3.521,3.521,0,0,1,6.129.815a3.522,3.522,0,0,1,.815,2.657,3.523,3.523,0,0,1-.815,2.657,3.523,3.523,0,0,1-2.656.814A3.528,3.528,0,0,1,.815,6.129Zm1.06-4.253a2.338,2.338,0,0,0-.375,1.6,2.337,2.337,0,0,0,.375,1.6,2.341,2.341,0,0,0,1.6.375,2.337,2.337,0,0,0,1.6-.375,2.337,2.337,0,0,0,.375-1.6,2.338,2.338,0,0,0-.375-1.6,2.337,2.337,0,0,0-1.6-.375A2.343,2.343,0,0,0,1.876,1.876Zm8.38,2.347a.75.75,0,0,1,0-1.5h6.472a.75.75,0,0,1,0,1.5Z" transform="translate(3.261 3.283)" fill="#2c2c2c"/>
</svg>
