<svg id="Icon_Outline_Cart" data-name="Icon/Outline/Cart" xmlns="http://www.w3.org/2000/svg" width="24" height="24" viewBox="0 0 24 24">
  <rect id="Container" width="24" height="24" fill="none"/>
  <path id="Cart" d="M12667.4,21215.574a1.294,1.294,0,1,1,1.294,1.293A1.293,1.293,0,0,1,12667.4,21215.574Zm-10.335,0a1.3,1.3,0,1,1,1.3,1.293A1.3,1.3,0,0,1,12657.066,21215.574Zm7.023-2.578c-1.246,0-4.761-.123-6.555-1.4-2.247-1.6-1.934-5.26-1.656-8.492a30.609,30.609,0,0,0,.165-3.094v-.037a1.249,1.249,0,0,0-.645-1.187,2.323,2.323,0,0,0-.762-.293.752.752,0,0,1,.224-1.486,3.025,3.025,0,0,1,2.685,2.988v.389a32.391,32.391,0,0,1,7.433-.715c2.061.059,4.75.395,5.857,1.656.852.969,1.337,2.9,1.289,5.15-.054,2.3-.666,4.2-1.641,5.074-1.464,1.309-5.154,1.438-6.251,1.447Zm-6.613-11.059c-.027.42-.064.852-.1,1.293-.245,2.834-.517,6.045,1.027,7.146.985.7,3.27,1.139,5.82,1.117,2.822-.025,4.7-.568,5.261-1.064.649-.586,1.1-2.15,1.14-3.988a6.978,6.978,0,0,0-.91-4.127c-.442-.5-1.928-1.064-4.776-1.145-.235-.006-.474-.01-.715-.01A30.988,30.988,0,0,0,12657.477,21201.938Zm7.779,4.43a.748.748,0,1,1,0-1.5h2.774a.748.748,0,1,1,0,1.5Z" transform="translate(-12651.1 -21194.898)" fill="#2c2c2c"/>
</svg>
