<svg id="icon_Outline_leg_chicken" data-name="icon /Outline/leg chicken" xmlns="http://www.w3.org/2000/svg" width="24" height="24" viewBox="0 0 24 24">
  <rect id="Container" width="24" height="24" fill="none"/>
  <g id="leg_chicken" data-name="leg chicken" transform="translate(1063.746 -2635.604)">
    <path id="Path_1" data-name="Path 1" d="M4.934,12.669a1.173,1.173,0,0,1,.415.076,5.088,5.088,0,0,1,2.482,2.482,1.149,1.149,0,0,1-.039.9,3.2,3.2,0,0,1-1.653,1.288.313.313,0,0,0-.01.223,2,2,0,0,1,.1.714A2.135,2.135,0,0,1,1.97,18.5a2.134,2.134,0,0,1,.17-4.262,2.167,2.167,0,0,1,.686.11.365.365,0,0,0,.1.015.32.32,0,0,0,.143-.033C3.33,13.8,3.99,12.669,4.934,12.669Zm1.625,2.95a4.037,4.037,0,0,0-1.628-1.613,2.779,2.779,0,0,0-.718,1.019l-.05.112-.087.088a1.61,1.61,0,0,1-1.148.47,1.691,1.691,0,0,1-.5-.075l-.015,0a.85.85,0,0,0-.277-.046.809.809,0,1,0,0,1.617h.022a1.153,1.153,0,0,1,1.127,1.148.809.809,0,1,0,1.618,0V18.3a.67.67,0,0,0-.038-.24,1.627,1.627,0,0,1,.373-1.651l.106-.11.144-.052A3.06,3.06,0,0,0,6.559,15.619Z" transform="translate(-1061.25 2636.626)" fill="#2c2c2c"/>
    <path id="Path_2" data-name="Path 2" d="M9.963,13.9a.663.663,0,0,1-.469-1.131A3.946,3.946,0,0,1,12.83,11.72,4.48,4.48,0,0,0,16.4,10.635l.009-.007A5.22,5.22,0,0,0,11.2,1.7,5.155,5.155,0,0,0,9.063,3.277l-.008.01A4.45,4.45,0,0,0,8,6.882a3.918,3.918,0,0,1-1.036,3.379A.663.663,0,1,1,6.03,9.32a2.628,2.628,0,0,0,.645-2.376,5.748,5.748,0,0,1,1.356-4.5A6.615,6.615,0,0,1,13.134,0a6.553,6.553,0,0,1,4.107,11.657,5.782,5.782,0,0,1-4.457,1.389,2.651,2.651,0,0,0-2.352.661A.661.661,0,0,1,9.963,13.9Z" transform="translate(-1061.926 2638.099)" fill="#2c2c2c"/>
    <path id="Stroke_3" data-name="Stroke 3" d="M2.357,3.467H2.334a.663.663,0,0,1-.64-.685,1.248,1.248,0,0,0-1.1-1.459A.663.663,0,0,1,.731,0,2.553,2.553,0,0,1,3.019,2.826.663.663,0,0,1,2.357,3.467Z" transform="matrix(0.407, 0.914, -0.914, 0.407, -1045.254, 2643.681)" fill="#2c2c2c"/>
  </g>
</svg>
