<svg id="Icon_Outline_Lamp" data-name="Icon/Outline/Lamp" xmlns="http://www.w3.org/2000/svg" width="24" height="24" viewBox="0 0 24 24">
  <rect id="Container" width="24" height="24" fill="none"/>
  <path id="Lamp" d="M14198.074,21431.988a2.017,2.017,0,1,1,1.431.6A2.029,2.029,0,0,1,14198.074,21431.988Zm1.06-1.807a.532.532,0,0,0,0,.748.507.507,0,0,0,.371.154.52.52,0,0,0,.376-.154.532.532,0,0,0,0-.748.525.525,0,0,0-.747,0ZM14191,21419.5a8.506,8.506,0,1,1,8.5,8.51A8.512,8.512,0,0,1,14191,21419.5Zm8.5,7.01a6.982,6.982,0,0,0,2.892-.625c-.418-.49-.842-1.018-1.24-1.576a8.772,8.772,0,0,1-1.625.189h-.048a8.763,8.763,0,0,1-1.625-.189c-.4.559-.825,1.086-1.243,1.576A6.97,6.97,0,0,0,14199.5,21426.514Zm-7-7.01a7,7,0,0,0,2.806,5.607c.372-.428.755-.885,1.116-1.369a2.976,2.976,0,0,1-.894-.865,3.06,3.06,0,0,1-.064-3.152,1.874,1.874,0,0,1,1.985-.828,1.979,1.979,0,0,1,1.538,1.1,3.393,3.393,0,0,1-.247,2.92.026.026,0,0,0-.011.021c.24.025.5.047.776.059.276-.012.537-.033.777-.059,0-.012-.011-.016-.011-.021a3.369,3.369,0,0,1-.247-2.916,1.974,1.974,0,0,1,1.538-1.107,1.862,1.862,0,0,1,1.979.828,3.057,3.057,0,0,1-.064,3.152,3.027,3.027,0,0,1-.888.865c.361.482.743.941,1.115,1.367a7,7,0,1,0-11.206-5.605Zm9.316.871a.515.515,0,0,0-.441.281,1.95,1.95,0,0,0,.216,1.543c.054.1.107.2.167.295a1.61,1.61,0,0,0,.479-.451,1.593,1.593,0,0,0,.048-1.506.345.345,0,0,0-.328-.178A.772.772,0,0,0,14201.817,21420.375Zm-5.094.162a1.61,1.61,0,0,0,.054,1.506,1.542,1.542,0,0,0,.479.451c.06-.1.113-.193.167-.295a1.97,1.97,0,0,0,.215-1.543.521.521,0,0,0-.44-.281.832.832,0,0,0-.14-.016A.356.356,0,0,0,14196.724,21420.537Z" transform="translate(-14187.508 -21409.75)" fill="#2c2c2c"/>
</svg>
