<svg id="Icon_Outline_My_location" data-name="Icon/Outline/My location" xmlns="http://www.w3.org/2000/svg" width="24" height="24" viewBox="0 0 24 24">
  <rect id="Container" width="24" height="24" fill="none"/>
  <path id="My_location" data-name="My location" d="M13971.751,21485.5v-1.287a7.764,7.764,0,0,1-6.963-6.963h-1.288a.749.749,0,1,1,0-1.5h1.287a7.761,7.761,0,0,1,6.964-6.963v-1.287a.75.75,0,1,1,1.5,0v1.287a7.761,7.761,0,0,1,6.963,6.963h1.287a.749.749,0,1,1,0,1.5h-1.287a7.765,7.765,0,0,1-6.963,6.963v1.287a.75.75,0,1,1-1.5,0Zm-5.5-9a6.25,6.25,0,1,0,6.25-6.248A6.257,6.257,0,0,0,13966.25,21476.5Zm2.5,0a3.748,3.748,0,1,1,3.748,3.748A3.754,3.754,0,0,1,13968.752,21476.5Zm1.5,0a2.249,2.249,0,1,0,2.249-2.248A2.252,2.252,0,0,0,13970.251,21476.5Z" transform="translate(-13960.5 -21464.5)" fill="#2c2c2c"/>
</svg>
