<svg id="Icon_Outline_Calendar_Time" data-name="Icon/Outline/Calendar &amp; Time" xmlns="http://www.w3.org/2000/svg" width="24" height="24" viewBox="0 0 24 24">
  <rect id="Container" width="24" height="24" fill="none"/>
  <path id="Date_time" data-name="Date &amp; time" d="M12558.273,21182.5a6.251,6.251,0,1,1,6.253,6.248A6.262,6.262,0,0,1,12558.273,21182.5Zm1.5,0a4.751,4.751,0,1,0,4.754-4.754A4.759,4.759,0,0,0,12559.772,21182.5Zm-2.812,5.424c-2.595-.232-4.312-1.01-5.414-2.439-1.068-1.389-1.547-3.355-1.547-6.365,0-3.383.617-5.5,2-6.887a6.115,6.115,0,0,1,2.654-1.506v-.979a.75.75,0,0,1,1.5,0v.658a21.718,21.718,0,0,1,5.53.006v-.664a.75.75,0,0,1,1.5,0v.994c.228.068.445.145.654.23a5.463,5.463,0,0,1,2.962,2.686.749.749,0,1,1-1.335.68,4.044,4.044,0,0,0-2.281-2.014v.285a.75.75,0,0,1-1.5,0v-.682a20.071,20.071,0,0,0-5.53-.008v.689a.75.75,0,1,1-1.5,0v-.3a4.35,4.35,0,0,0-1.591.986,4.694,4.694,0,0,0-1.152,2.09h8.141a.75.75,0,0,1,0,1.5h-8.433a18.707,18.707,0,0,0-.119,2.238c0,2.621.394,4.355,1.234,5.455.829,1.074,2.212,1.664,4.36,1.855a.752.752,0,0,1-.069,1.5A.233.233,0,0,1,12556.96,21187.926Zm10.045-4.221-2.69-.043a.75.75,0,0,1-.739-.75v-2.883a.75.75,0,1,1,1.5,0v2.145l1.957.031a.75.75,0,0,1-.016,1.5Z" transform="translate(-12548 -21166.875)" fill="#2c2c2c"/>
</svg>
