<svg id="Icon_Outline_Check_all" data-name="Icon/Outline/Check all" xmlns="http://www.w3.org/2000/svg" width="24" height="24" viewBox="0 0 24 24">
  <rect id="Container" width="24" height="24" fill="none"/>
  <path id="Check_all" data-name="Check all" d="M1.415,14.086.22,12.892a.75.75,0,0,1,1.06-1.061l.665.664L4.22,10.22a.75.75,0,0,1,1.06,1.061l-2.805,2.8a.749.749,0,0,1-1.06,0ZM7.75,12.9a.75.75,0,1,1,0-1.5h9a.75.75,0,1,1,0,1.5ZM1.415,9.085.22,7.891A.75.75,0,0,1,1.28,6.83l.665.664L4.22,5.22A.75.75,0,1,1,5.28,6.28L2.475,9.085a.75.75,0,0,1-1.06,0ZM7.75,7.9a.75.75,0,0,1,0-1.5h9a.75.75,0,0,1,0,1.5ZM1.415,4.086.22,2.892A.75.75,0,0,1,1.28,1.831l.665.664L4.22.22A.75.75,0,0,1,5.28,1.281l-2.805,2.8a.751.751,0,0,1-1.06,0ZM7.75,2.9a.75.75,0,0,1,0-1.5h8.778a.75.75,0,1,1,0,1.5Z" transform="translate(3.25 4.848)" fill="#2c2c2c"/>
</svg>
