<svg id="Icon_Outline_Sand_glass" data-name="Icon/Outline/Sand glass" xmlns="http://www.w3.org/2000/svg" width="24" height="24" viewBox="0 0 24 24">
  <rect id="Container" width="24" height="24" fill="none"/>
  <path id="Sand_glass" data-name="Sand glass" d="M12586,21245h-.016c-2.458-.043-5.417-.672-6.351-2.314-.011-.02-.022-.039-.033-.061a.755.755,0,0,1-.081-.164,5.767,5.767,0,0,1,.194-3.9,15.763,15.763,0,0,1,2.357-4.371c.117-.145.229-.289.346-.428a.751.751,0,0,1,1.152.965c-.106.123-.208.252-.31.385a13.978,13.978,0,0,0-2.122,3.924,8.042,8.042,0,0,0-.316,1.234,11.528,11.528,0,0,1,5.643-1.053,12.222,12.222,0,0,1,3.93.666,5.32,5.32,0,0,1,.78.365,8.539,8.539,0,0,0-.311-1.213,13.949,13.949,0,0,0-2.122-3.924c-.1-.123-.192-.246-.314-.389a.749.749,0,1,1,1.146-.965c.134.154.251.3.353.436a15.411,15.411,0,0,1,2.356,4.367c.416,1.227.763,2.938.085,4.127-.938,1.643-3.9,2.271-6.355,2.314Zm0-1.5c2.31-.041,4.334-.627,4.967-1.414-.088-.273-.487-.566-1.106-.8a10.672,10.672,0,0,0-3.434-.564,12.694,12.694,0,0,0-3.972.469,2.446,2.446,0,0,0-1.434.881C12581.645,21242.863,12583.68,21243.457,12586,21243.5Zm-5.134-10.861a14.5,14.5,0,0,1-1.632-3.822,6.941,6.941,0,0,1-.234-1.869v0a3.256,3.256,0,0,1,.395-1.545c.97-1.7,4.041-2.352,6.59-2.4h.026c2.555.047,5.625.7,6.6,2.4a3.25,3.25,0,0,1,.388,1.467.731.731,0,0,1,.007.123c0,.016,0,.031,0,.049a7.2,7.2,0,0,1-.232,1.779,14.9,14.9,0,0,1-1.632,3.822.761.761,0,0,1-.646.363.7.7,0,0,1-.384-.107.749.749,0,0,1-.261-1.029,13.858,13.858,0,0,0,1.267-2.725,7.362,7.362,0,0,1-.851.3,16.34,16.34,0,0,1-4.33.529c-.176,0-.356,0-.533-.006a14.159,14.159,0,0,1-4.18-.662c-.11-.039-.216-.08-.316-.121a13.861,13.861,0,0,0,1.249,2.686.75.75,0,1,1-1.284.773Zm4.569-4.174a15.4,15.4,0,0,0,4.4-.465c1.2-.346,1.638-.773,1.657-1.041a1.809,1.809,0,0,0-.2-.818c-.512-.9-2.74-1.59-5.3-1.637-2.559.047-4.787.734-5.3,1.637a1.861,1.861,0,0,0-.2.881C12580.556,21227.568,12582.3,21228.379,12585.438,21228.463Z" transform="translate(-12574.002 -21222)" fill="#2c2c2c"/>
</svg>
