<svg id="Icon_Outline_Q_mark_Circle" data-name="Icon/Outline/Q mark Circle" xmlns="http://www.w3.org/2000/svg" width="24" height="24" viewBox="0 0 24 24">
  <rect id="Container" width="24" height="24" fill="none"/>
  <path id="Q_mark" data-name="Q mark" d="M0,10A10,10,0,1,1,10,20,10.011,10.011,0,0,1,0,10Zm1.5,0A8.5,8.5,0,1,0,10,1.5,8.509,8.509,0,0,0,1.5,10ZM9,14.5a1,1,0,1,1,1,1A1,1,0,0,1,9,14.5Zm.563-1.877a.75.75,0,0,1-.173-1.047c.186-.259.439-.548.707-.854C11.255,9.4,12.17,8.219,11.62,7.2a1.95,1.95,0,0,0-1.94-.94,1.619,1.619,0,0,0-1.45,1.063A.75.75,0,1,1,6.791,6.9,3.073,3.073,0,0,1,9.524,4.77,3.43,3.43,0,0,1,12.94,6.489a3.116,3.116,0,0,1-.1,3.025,11.253,11.253,0,0,1-1.614,2.2c-.244.278-.473.541-.617.741a.749.749,0,0,1-1.046.173Z" transform="translate(2 2)" fill="#2c2c2c"/>
</svg>
