<svg id="Icon_Outline_Lock" data-name="Icon/Outline/Lock" xmlns="http://www.w3.org/2000/svg" width="24" height="24" viewBox="0 0 24 24">
  <path id="Union_1" data-name="Union 1" d="M1.95,18.575C.6,17.471,0,15.781,0,13.1S.6,8.72,1.95,7.616A5.207,5.207,0,0,1,3.1,6.909V5.222a5.311,5.311,0,0,1,10.621.023V6.909a5.209,5.209,0,0,1,1.149.707c1.349,1.1,1.951,2.794,1.951,5.479s-.6,4.376-1.951,5.481c-1.3,1.066-3.295,1.541-6.46,1.541S3.253,19.642,1.95,18.575Zm.95-9.8C1.932,9.57,1.5,10.9,1.5,13.1s.432,3.527,1.4,4.32c1,.82,2.752,1.2,5.509,1.2s4.508-.383,5.51-1.2c.969-.794,1.4-2.126,1.4-4.32s-.432-3.525-1.4-4.318c-1-.821-2.752-1.2-5.51-1.2S3.9,7.956,2.9,8.777Zm9.32-2.359V5.259A3.811,3.811,0,0,0,4.6,5.241V6.418a17.555,17.555,0,0,1,3.81-.344A17.562,17.562,0,0,1,12.22,6.418Zm-4.56,7.96V12.156a.75.75,0,0,1,1.5,0v2.221a.75.75,0,0,1-1.5,0Z" transform="translate(3.5 2)" fill="#2c2c2c"/>
  <rect id="Container" width="24" height="24" fill="none"/>
</svg>
