<svg id="Icon_Outline_Archive" data-name="Icon/Outline/Archive" xmlns="http://www.w3.org/2000/svg" width="24" height="24" viewBox="0 0 24 24">
  <rect id="Container" width="24" height="24" fill="none"/>
  <path id="Archive" d="M12641.377,21186.988a6.354,6.354,0,0,1-1.59-3.893,36.692,36.692,0,0,1-.031-5.238c.014-.443.029-.893.045-1.355h-1.051a.75.75,0,0,1,0-1.5h5.683a.766.766,0,0,1,.095,0h8.355a.766.766,0,0,1,.095,0h5.683a.75.75,0,0,1,0,1.5h-1.066c0,.693.013,1.355.024,2,.059,3.914.1,6.748-1.7,8.572-1.352,1.373-3.585,1.984-7.228,1.984C12645.068,21189.063,12642.739,21188.4,12641.377,21186.988Zm-.122-9.078c-.138,3.8-.239,6.541,1.2,8.035,1.063,1.1,3.047,1.617,6.237,1.617,3.17,0,5.127-.488,6.158-1.537,1.356-1.377,1.319-3.945,1.266-7.5-.012-.652-.023-1.322-.026-2.025h-2.352q0,.17-.015.34a4.711,4.711,0,0,1-4.68,4.318c-.112,0-.224-.006-.335-.016a4.341,4.341,0,0,1-1.17-.064,4.708,4.708,0,0,1-3.871-4.578h-2.368C12641.286,21176.984,12641.27,21177.453,12641.255,21177.91Zm6.547,1.7a3.2,3.2,0,0,0,.84.037h.128a3.2,3.2,0,0,0,3.462-2.926c0-.072.008-.145.01-.217h-7.069A3.21,3.21,0,0,0,12647.8,21179.607Z" transform="translate(-12636.707 -21169.531)" fill="#2c2c2c"/>
</svg>
