<svg id="Icon_Outline_Motorcycle" data-name="Icon/Outline/Motorcycle" xmlns="http://www.w3.org/2000/svg" width="24" height="24" viewBox="0 0 24 24">
  <rect id="Container" width="24" height="24" fill="none"/>
  <path id="Motorcycle" d="M15376.058,21604.5a3.757,3.757,0,0,1-3.752-3.752v-3.5a3.757,3.757,0,0,1,3.752-3.752h.163a3.752,3.752,0,0,1,3.746,3.752v3.5a3.752,3.752,0,0,1-3.746,3.752Zm-2.25-7.25v3.5a2.251,2.251,0,0,0,2.25,2.25h.163a2.254,2.254,0,0,0,2.25-2.25v-3.5a2.256,2.256,0,0,0-2.25-2.25h-.163A2.252,2.252,0,0,0,15373.808,21597.252Zm7.716.982a.748.748,0,0,1-.168-1.047,2.24,2.24,0,0,0,.423-1.312v-3.627a2.752,2.752,0,0,0-2.749-2.748h-5.78a2.749,2.749,0,0,0-2.749,2.748v3.627a2.24,2.24,0,0,0,.423,1.313.753.753,0,0,1-.173,1.047.725.725,0,0,1-.434.141.746.746,0,0,1-.613-.314,3.725,3.725,0,0,1-.705-2.186v-3.627a4.258,4.258,0,0,1,4.251-4.25h.229a3.237,3.237,0,0,1-.424-1h-2.836a.751.751,0,0,1,0-1.5h2.837a3.25,3.25,0,0,1,6.324,0h2.838a.751.751,0,0,1,0,1.5h-2.837a3.214,3.214,0,0,1-.424,1h.072a4.253,4.253,0,0,1,4.245,4.25v3.627a3.672,3.672,0,0,1-.705,2.186.745.745,0,0,1-.61.314A.737.737,0,0,1,15381.523,21598.234Zm-5.172-10.236a1.751,1.751,0,1,0-.262,0Z" transform="translate(-15364.219 -21581.75)" fill="#2c2c2c"/>
</svg>
