<svg id="Icon_Outline_Flag" data-name="Icon/Outline/Flag" xmlns="http://www.w3.org/2000/svg" width="24" height="24" viewBox="0 0 24 24">
  <rect id="Container" width="24" height="24" fill="none"/>
  <path id="Flag" d="M3429.747,25622.713a.752.752,0,0,1,0-1.5h.425v-16.957a.752.752,0,0,1,1.5,0v16.957h.424a.752.752,0,1,1,0,1.5Zm3.891-7.627a.746.746,0,0,1,.263-1.027c2.862-1.711,6.585-1.248,9.041-.945.489.064,1.061.135,1.434.146v-7.588a10.856,10.856,0,0,0-4.071-1.086c-2.444-.258-4.476.07-5.575.895a.749.749,0,0,1-.894-1.2c1.621-1.215,4.051-1.35,5.8-1.248a14.885,14.885,0,0,1,5.144,1.152c.27.135,1.093.545,1.093,1.3v8.275a.923.923,0,0,1-.315.707c-.489.432-1.26.334-2.8.141-2.257-.281-5.672-.7-8.1.74a.69.69,0,0,1-.379.109A.751.751,0,0,1,3433.638,25615.086Z" transform="translate(-3424.894 -25600.75)" fill="#2c2c2c"/>
</svg>
