<svg id="Icon_Outline_Add_picture" data-name="Icon/Outline/Add picture" xmlns="http://www.w3.org/2000/svg" width="24" height="24" viewBox="0 0 24 24">
  <rect id="Container" width="24" height="24" fill="none"/>
  <path id="Add_picture" data-name="Add picture" d="M15.521,18.437V16.713H13.75a.75.75,0,1,1,0-1.5h1.771V13.49a.75.75,0,0,1,1.5,0v1.723h1.773a.75.75,0,1,1,0,1.5H17.022v1.723a.75.75,0,0,1-1.5,0ZM1.7,16.582C.284,15.152,0,13.109,0,10.278A11.131,11.131,0,0,1,.7,5.665,4.825,4.825,0,0,1,4.071,3.1a1.176,1.176,0,0,0,.5-.322,3.724,3.724,0,0,0,.28-.5A3.591,3.591,0,0,1,6.521.361.741.741,0,0,1,6.657.319a15.124,15.124,0,0,1,6.186,0,.762.762,0,0,1,.138.043,3.567,3.567,0,0,1,1.674,1.915,3.383,3.383,0,0,0,.274.5,1.172,1.172,0,0,0,.5.32A4.838,4.838,0,0,1,18.8,5.666a11.125,11.125,0,0,1,.7,4.612.75.75,0,0,1-1.5,0,9.422,9.422,0,0,0-.55-3.965,3.419,3.419,0,0,0-2.434-1.774l-.024-.007a2.676,2.676,0,0,1-1.17-.742,3.64,3.64,0,0,1-.513-.846,2.589,2.589,0,0,0-.854-1.171,13.634,13.634,0,0,0-5.41,0A2.713,2.713,0,0,0,6.2,2.94a3.734,3.734,0,0,1-.515.847,2.678,2.678,0,0,1-1.173.744l-.025.008A3.4,3.4,0,0,0,2.05,6.311a9.429,9.429,0,0,0-.55,3.967c0,2.451.212,4.183,1.266,5.247,1.122,1.131,3.276,1.636,6.983,1.636a.75.75,0,1,1,0,1.5C5.61,18.661,3.128,18.02,1.7,16.582Zm4.158-6.37a3.895,3.895,0,0,1,3.893-3.9h0a3.895,3.895,0,1,1-3.9,3.9Zm3.894-2.4a2.4,2.4,0,1,0,2.4,2.394,2.384,2.384,0,0,0-2.4-2.394v-.75Z" transform="translate(2.25 2.248)" fill="#2c2c2c"/>
</svg>
