<svg id="Icon_Outline_Phone" data-name="Icon/Outline/Phone" xmlns="http://www.w3.org/2000/svg" width="24" height="24" viewBox="0 0 24 24">
  <rect id="Container" width="24" height="24" fill="none"/>
  <path id="Phone" d="M12630.5,21098.971c-1.414-1.1-2.039-2.791-2.039-5.48a.749.749,0,1,1,1.5,0c0,2.182.45,3.506,1.462,4.3,1.054.826,2.9,1.209,5.788,1.209s4.734-.383,5.788-1.209c1.012-.793,1.462-2.117,1.462-4.3a.749.749,0,1,1,1.5,0c0,2.689-.625,4.379-2.039,5.48-1.35,1.059-3.421,1.531-6.709,1.531S12631.849,21100.029,12630.5,21098.971Zm10.108-2.627a.752.752,0,0,1,0-1.5h.011a.752.752,0,0,1,0,1.5Zm-3.4,0a.752.752,0,0,1,0-1.5h.011a.752.752,0,0,1,0,1.5Zm-3.41,0a.752.752,0,0,1,0-1.5h.011a.752.752,0,0,1,0,1.5Zm6.81-2.854a.752.752,0,0,1,0-1.5h.011a.752.752,0,0,1,0,1.5Zm-3.4,0a.752.752,0,0,1,0-1.5h.011a.752.752,0,0,1,0,1.5Zm-3.41,0a.752.752,0,0,1,0-1.5h.011a.752.752,0,0,1,0,1.5Zm7.117-3.5a2.943,2.943,0,0,1-.9-1.467,1.64,1.64,0,0,0-.535-.916,6.055,6.055,0,0,0-4.549,0,1.7,1.7,0,0,0-.534.916,2.9,2.9,0,0,1-.9,1.467,3.99,3.99,0,0,1-2.553.668c-.381,0-.815-.027-1.281-.068a2.731,2.731,0,0,1-2.07-1.166,4.843,4.843,0,0,1-.481-3.414,3.724,3.724,0,0,1,2.145-2.605c1.716-.937,4.39-1.41,7.948-1.41s6.228.473,7.948,1.41a3.746,3.746,0,0,1,2.146,2.605,4.871,4.871,0,0,1-.472,3.4,2.721,2.721,0,0,1-2.081,1.182c-.466.047-.9.068-1.281.068A3.937,3.937,0,0,1,12640.915,21089.994Zm-.546-3.59a3.042,3.042,0,0,1,1.064,1.637,1.577,1.577,0,0,0,.419.783,2.77,2.77,0,0,0,1.615.334,11.263,11.263,0,0,0,1.138-.059,1.231,1.231,0,0,0,.959-.5,3.383,3.383,0,0,0,.27-2.266l0-.031-.011-.043c-.053-.322-.3-.947-1.382-1.535-1.027-.562-3.114-1.225-7.229-1.225s-6.206.662-7.233,1.225c-1.075.588-1.329,1.213-1.383,1.529l0,.043,0,.031a3.337,3.337,0,0,0,.27,2.271,1.231,1.231,0,0,0,.959.5c.423.037.8.059,1.138.059a2.741,2.741,0,0,0,1.61-.334,1.577,1.577,0,0,0,.424-.783,3.014,3.014,0,0,1,1.064-1.637,7.154,7.154,0,0,1,6.322,0Z" transform="translate(-12625 -21079)" fill="#2c2c2c"/>
</svg>
