<svg id="Icon_Outline_Upload" data-name="Icon/Outline/Upload" xmlns="http://www.w3.org/2000/svg" width="24" height="24" viewBox="0 0 24 24">
  <rect id="Container" width="24" height="24" fill="none"/>
  <path id="Upload" d="M9.5,16.749V9.566L7.864,11.207A.75.75,0,1,1,6.8,10.148L9.717,7.221a.748.748,0,0,1,.344-.2h0l.017,0h0l.017,0h0l.017,0h0A.75.75,0,0,1,10.248,7h0a.746.746,0,0,1,.4.115l0,0,.009.006.007,0,0,0a.743.743,0,0,1,.1.086l0,0h0L13.7,10.148a.75.75,0,1,1-1.063,1.058L11,9.566v7.183a.75.75,0,0,1-1.5,0Zm4.75-1.249a.75.75,0,0,1,0-1.5h2a2.7,2.7,0,0,0,1.936-.806l.008-.008A2.7,2.7,0,0,0,19,11.25v-.91a3.844,3.844,0,0,0-3.84-3.84.751.751,0,0,1-.74-.627A5.247,5.247,0,0,0,4,6.75a5.122,5.122,0,0,0,.1.977A.75.75,0,0,1,3.55,8.6,2.621,2.621,0,0,0,2.316,9.3L2.3,9.317a2.588,2.588,0,0,0-.683,1.139c0,.005,0,.011,0,.016a2.555,2.555,0,0,0-.114.675,2.639,2.639,0,0,0,.766,1.932A3.007,3.007,0,0,0,4.418,14H6.249a.75.75,0,1,1,0,1.5H4.418a4.516,4.516,0,0,1-3.231-1.379A4.127,4.127,0,0,1,0,11.093,4.259,4.259,0,0,1,1.249,8.249a4.139,4.139,0,0,1,1.28-.882q-.03-.31-.03-.617A6.746,6.746,0,0,1,15.773,5.036a5.348,5.348,0,0,1,4.727,5.3v.91a4.267,4.267,0,0,1-4.251,4.25Z" transform="translate(1.751 3.25)" fill="#2c2c2c"/>
</svg>
