<svg id="Icon_Outline_Info_circle" data-name="Icon/Outline/Info circle" xmlns="http://www.w3.org/2000/svg" width="24" height="24" viewBox="0 0 24 24">
  <rect id="Container" width="24" height="24" fill="none"/>
  <path id="Info_circle" data-name="Info circle" d="M0,10A10,10,0,1,1,10,20,10.011,10.011,0,0,1,0,10Zm1.5,0A8.5,8.5,0,1,0,10,1.5,8.509,8.509,0,0,0,1.5,10Zm7.754,3.645V9.75a.75.75,0,1,1,1.5,0v3.9a.75.75,0,0,1-1.5,0ZM10,7a.75.75,0,1,1,0-1.5h.009a.75.75,0,0,1,0,1.5Z" transform="translate(2.25 1.729)" fill="#2c2c2c"/>
</svg>
