<svg id="Icon_Outline_Bag" data-name="Icon/Outline/Bag" xmlns="http://www.w3.org/2000/svg" width="24" height="24" viewBox="0 0 24 24">
  <rect id="Container" width="24" height="24" fill="none"/>
  <path id="Bag" d="M14045.051,21488.518c-1.3-1.3-1.871-3.178-2.658-6.1-.675-2.492-.485-4.381.577-5.766a6.468,6.468,0,0,1,3.819-2.166,5.082,5.082,0,0,1,10.094,0,6.474,6.474,0,0,1,3.82,2.166c1.057,1.385,1.245,3.273.577,5.766-.793,2.922-1.365,4.795-2.665,6.1-1.354,1.365-3.322,1.92-6.779,1.92S14046.41,21489.883,14045.051,21488.518Zm-.89-10.949c-.761.988-.862,2.443-.318,4.455.723,2.686,1.235,4.391,2.271,5.432s2.746,1.482,5.723,1.482,4.688-.441,5.717-1.482,1.554-2.746,2.276-5.432c.545-2.012.437-3.467-.318-4.455-1.062-1.391-3.575-2.064-7.675-2.064S14045.224,21476.178,14044.161,21477.568Zm11.148-3.367a3.584,3.584,0,0,0-6.946,0,30.673,30.673,0,0,1,6.946,0Zm-.583,6.123a.752.752,0,0,1,0-1.5h.049a.752.752,0,0,1,0,1.5Zm-5.83,0a.752.752,0,0,1,0-1.5h.043a.752.752,0,1,1,0,1.5Z" transform="translate(-14039.801 -21468.199)" fill="#2c2c2c"/>
</svg>
