<svg id="Icon_Outline_Fire" data-name="Icon/Outline/Fire" xmlns="http://www.w3.org/2000/svg" width="24" height="24" viewBox="0 0 24 24">
  <rect id="Container" width="24" height="24" fill="none"/>
  <path id="Fire" d="M14454.139,19321.1a8.515,8.515,0,0,1-3.7-2.25,8.684,8.684,0,0,1-.441-11.564,11.4,11.4,0,0,1,1.861-1.684l.146-.111c1.649-1.285,2.57-2.3,2.41-3.705a1.7,1.7,0,0,1,.35-1.43,1.291,1.291,0,0,1,1.115-.34,3.585,3.585,0,0,1,1.8,1.049c.039.033.072.066.111.1,2.439,2.164,4.311,5.684,2.992,8.676a.75.75,0,1,1-1.372-.607,4.466,4.466,0,0,0-.18-3.664,9.764,9.764,0,0,0-2.439-3.279c-.038-.033-.072-.068-.116-.105a4.231,4.231,0,0,0-.775-.6v.023c.3,2.521-1.746,4.117-2.973,5.072l-.15.117a10.3,10.3,0,0,0-1.624,1.449,7.152,7.152,0,0,0,9.2,10.7,7.012,7.012,0,0,0,3.3-4.689,6.881,6.881,0,0,0-.664-4.756.749.749,0,1,1,1.314-.719,8.316,8.316,0,0,1,.819,5.766,8.589,8.589,0,0,1-4,5.684,8.673,8.673,0,0,1-6.982.877Zm-1.755-5.377a.75.75,0,0,1,.533-.893.181.181,0,0,0,.024-.006.746.746,0,0,1,.9.559,1.41,1.41,0,0,0,1.63,1.275.749.749,0,1,1,.237,1.479,3.184,3.184,0,0,1-.5.041A2.908,2.908,0,0,1,14452.384,19315.719Z" transform="translate(-14444.652 -19298.734)" fill="#2c2c2c"/>
</svg>
