<svg id="Icon_Outline_Work" data-name="Icon/Outline/Work" xmlns="http://www.w3.org/2000/svg" width="24" height="24" viewBox="0 0 24 24">
  <rect id="Container" width="24" height="24" fill="none"/>
  <path id="Work" d="M2.266,18.619C.7,17.223,0,15.074,0,11.651c0-.673.027-1.3.082-1.874A.747.747,0,0,1,.1,9.627,7.222,7.222,0,0,1,2.266,4.682,7.526,7.526,0,0,1,5.949,3.022,2.933,2.933,0,0,1,8.759,0h2.4a2.933,2.933,0,0,1,2.81,3.022,7.526,7.526,0,0,1,3.683,1.659,7.23,7.23,0,0,1,2.17,4.957.749.749,0,0,1,.013.127c.056.581.083,1.208.083,1.885,0,3.424-.7,5.573-2.266,6.969C16.115,19.992,13.742,20.6,9.961,20.6S3.807,19.992,2.266,18.619ZM1.5,11.651c0,2.958.544,4.762,1.763,5.848,1.247,1.11,3.312,1.6,6.7,1.6s5.451-.5,6.7-1.6c1.22-1.086,1.764-2.89,1.764-5.848q0-.324-.009-.63a18.616,18.616,0,0,1-7.7,1.907v1.889a.75.75,0,0,1-1.5,0V12.928a18.587,18.587,0,0,1-7.7-1.908Q1.5,11.326,1.5,11.651Zm8.389-.209c.024,0,.048,0,.072,0s.048,0,.072,0a17,17,0,0,0,8.253-2.056A5.545,5.545,0,0,0,16.658,5.8,6.469,6.469,0,0,0,13.27,4.418h-.046a.748.748,0,0,1-.262-.047,22.393,22.393,0,0,0-3-.174,22.4,22.4,0,0,0-3,.174.748.748,0,0,1-.262.047H6.653A6.474,6.474,0,0,0,3.263,5.8,5.547,5.547,0,0,0,1.637,9.385,16.965,16.965,0,0,0,9.889,11.442Zm2.57-8.635a1.4,1.4,0,0,0-1.3-1.306h-2.4a1.4,1.4,0,0,0-1.3,1.306c.756-.073,1.586-.109,2.5-.109S11.7,2.733,12.459,2.806Z" transform="translate(2 1.699)" fill="#2c2c2c"/>
</svg>
