<svg id="Icon_Outline_Calendar_Edit" data-name="Icon/Outline/Calendar &amp; Edit" xmlns="http://www.w3.org/2000/svg" width="24" height="24" viewBox="0 0 24 24">
  <rect id="Container" width="24" height="24" fill="none"/>
  <path id="Edit_date" data-name="Edit date" d="M12537.968,21183.936a.731.731,0,0,1-.483-.355c-.063-.111-1.531-2.738.128-4.939l5.358-7.145a3.161,3.161,0,1,1,5.056,3.795l-.952,1.27a.751.751,0,0,1-.073.119.735.735,0,0,1-.094.1l-4.239,5.648a4.3,4.3,0,0,1-3.562,1.617A5.315,5.315,0,0,1,12537.968,21183.936Zm.84-4.4a3.053,3.053,0,0,0-.17,2.982,3.648,3.648,0,0,0,.468.027,2.846,2.846,0,0,0,2.36-1.016l3.879-5.162-2.659-2Zm7.438-4.367.585-.779a1.672,1.672,0,0,0-.33-2.328,1.662,1.662,0,0,0-2.328.33l-.587.781Zm-10.824,8.834c-2.771-.176-4.6-.92-5.769-2.34-1.144-1.393-1.653-3.4-1.653-6.508,0-3.375.616-5.5,2-6.885a6.047,6.047,0,0,1,2.631-1.5v-1.027a.75.75,0,0,1,1.5,0v.7a19.133,19.133,0,0,1,2.759-.176,18.931,18.931,0,0,1,2.765.178v-.705a.75.75,0,1,1,1.5,0v1.029a6,6,0,0,1,2.76,1.635.751.751,0,0,1-1.1,1.021,4.266,4.266,0,0,0-1.659-1.074v.25a.75.75,0,1,1-1.5,0v-.641a19.721,19.721,0,0,0-5.523,0v.643a.75.75,0,1,1-1.5,0v-.254a4.39,4.39,0,0,0-1.568.977,4.7,4.7,0,0,0-1.14,2.053h8.1a.749.749,0,1,1,0,1.5h-8.4a18.441,18.441,0,0,0-.124,2.275c0,5.275,1.462,7.061,6.019,7.348a.751.751,0,0,1-.048,1.5Z" transform="translate(-12526 -21163)" fill="#2c2c2c"/>
</svg>
