<svg id="Icon_Outline_Privacy" data-name="Icon/Outline/Privacy" xmlns="http://www.w3.org/2000/svg" width="24" height="24" viewBox="0 0 24 24">
  <rect id="Container" width="24" height="24" fill="none"/>
  <path id="Privacy" d="M3.288,18.215A9.249,9.249,0,0,1,.063,10.878c0-1.916-.025-3.306-.044-4.321A23.552,23.552,0,0,1,.036,4.141,1.959,1.959,0,0,1,.62,2.827,13.327,13.327,0,0,1,8.484,0,13.339,13.339,0,0,1,16.35,2.827a1.958,1.958,0,0,1,.583,1.313,23.32,23.32,0,0,1,.016,2.414c-.018,1.016-.043,2.407-.043,4.325a9.249,9.249,0,0,1-3.225,7.337,8.639,8.639,0,0,1-5.2,2.14A8.641,8.641,0,0,1,3.288,18.215ZM1.681,3.887c-.194.194-.2.512-.162,2.643.018,1.021.043,2.418.043,4.348a7.792,7.792,0,0,0,2.7,6.194,7.2,7.2,0,0,0,4.226,1.783,7.2,7.2,0,0,0,4.226-1.783,7.794,7.794,0,0,0,2.7-6.194c0-1.931.025-3.33.044-4.352.039-2.128.031-2.447-.161-2.64A12.048,12.048,0,0,0,8.484,1.5,12.031,12.031,0,0,0,1.681,3.887Zm4.662,9.628-2.39-2.389a.75.75,0,1,1,1.06-1.061l1.859,1.858,5.081-5.08A.75.75,0,1,1,13.014,7.9L7.4,13.515a.75.75,0,0,1-1.06,0Z" transform="translate(3.516 1.822)"/>
</svg>
