<svg id="Icon_Outline_Calendar" data-name="Icon/Outline/Calendar" xmlns="http://www.w3.org/2000/svg" width="24" height="24" viewBox="0 0 24 24">
  <rect id="Container" width="24" height="24" fill="none"/>
  <path id="Calendar" d="M2.248,19.251C.694,17.7,0,15.3,0,11.475S.694,5.254,2.248,3.7A6.847,6.847,0,0,1,5.274,2V.75a.75.75,0,0,1,1.5,0v.92a21.336,21.336,0,0,1,3.25-.218,21.312,21.312,0,0,1,3.259.22V.75a.75.75,0,0,1,1.5,0V2A6.842,6.842,0,0,1,17.8,3.7c1.555,1.555,2.249,3.954,2.249,7.776S19.355,17.7,17.8,19.251,13.847,21.5,10.024,21.5,3.8,20.806,2.248,19.251ZM1.5,11.475C1.5,18.007,3.492,20,10.024,20s8.525-1.992,8.525-8.524a21.2,21.2,0,0,0-.151-2.7H1.651A21.2,21.2,0,0,0,1.5,11.475Zm16.6-4.2a4.988,4.988,0,0,0-3.322-3.7v.441a.75.75,0,0,1-1.5,0V3.186a19.24,19.24,0,0,0-3.259-.235,19.258,19.258,0,0,0-3.25.233v.828a.75.75,0,0,1-1.5,0V3.568a4.99,4.99,0,0,0-3.33,3.706Zm-3.676,9.289a.75.75,0,0,1,0-1.5h.009a.75.75,0,1,1,0,1.5Zm-4.4,0a.75.75,0,0,1,0-1.5h.009a.75.75,0,0,1,0,1.5Zm-4.408,0a.75.75,0,0,1,0-1.5H5.63a.75.75,0,0,1,0,1.5Zm8.807-3.852a.75.75,0,1,1,0-1.5h.009a.75.75,0,1,1,0,1.5Zm-4.4,0a.75.75,0,0,1,0-1.5h.009a.75.75,0,1,1,0,1.5Zm-4.408,0a.75.75,0,1,1,0-1.5H5.63a.75.75,0,1,1,0,1.5Z" transform="translate(2.25 1.25)" fill="#2c2c2c"/>
</svg>
