<svg id="Icon_Outline_Copy" data-name="Icon/Outline/Copy" xmlns="http://www.w3.org/2000/svg" width="24" height="24" viewBox="0 0 24 24">
  <rect id="Container" width="24" height="24" fill="none"/>
  <path id="Copy" d="M14807.941,21813.313c-1.073-1.182-1.549-2.984-1.549-5.842s.476-4.658,1.549-5.836c1.09-1.205,2.754-1.74,5.393-1.74s4.3.535,5.4,1.74c1.073,1.178,1.55,2.979,1.55,5.836s-.477,4.66-1.55,5.842c-1.095,1.205-2.759,1.742-5.4,1.742S14809.031,21814.518,14807.941,21813.313Zm-.049-5.842c0,4.715,1.221,6.082,5.441,6.082s5.448-1.367,5.448-6.082-1.222-6.076-5.448-6.076S14807.893,21802.758,14807.893,21807.471Zm-4.3,1.994c-1.106-1.178-1.594-3-1.594-5.887,0-2.857.477-4.658,1.55-5.836,1.09-1.205,2.754-1.74,5.393-1.74a8.049,8.049,0,0,1,4.621,1.061.751.751,0,0,1-.843,1.244,6.672,6.672,0,0,0-3.778-.8c-4.221,0-5.441,1.363-5.441,6.076,0,2.48.366,3.98,1.188,4.861a.753.753,0,0,1-.038,1.063.735.735,0,0,1-.509.2A.744.744,0,0,1,14803.595,21809.465Z" transform="translate(-14799.141 -21794)" fill="#2c2c2c"/>
</svg>
