<svg id="Icon_Outline_Settings" data-name="Icon/Outline/Settings" xmlns="http://www.w3.org/2000/svg" width="24" height="24" viewBox="0 0 24 24">
  <path id="Union_7" data-name="Union 7" d="M12739.023,21397.256a.761.761,0,0,0-.241-.574.8.8,0,0,0-.553-.23.8.8,0,0,0-.393.107.1.1,0,0,1-.026.016,3.166,3.166,0,0,1-1.585.42,3.244,3.244,0,0,1-1.616-6.049.807.807,0,0,0,0-1.391,3.246,3.246,0,0,1,1.616-6.053,3.2,3.2,0,0,1,1.611.436.763.763,0,0,0,.393.113.805.805,0,0,0,.794-.807,3.226,3.226,0,1,1,6.451,0,.805.805,0,0,0,.795.807.759.759,0,0,0,.392-.113,3.207,3.207,0,0,1,4.4,1.191,3.258,3.258,0,0,1-1.177,4.426.807.807,0,0,0-.016,1.381.023.023,0,0,0,.016.01,3.26,3.26,0,0,1,1.177,4.426,3.209,3.209,0,0,1-4.4,1.188.791.791,0,0,0-.392-.107.8.8,0,0,0-.795.8,3.226,3.226,0,1,1-6.451,0Zm.8-1.658a2.29,2.29,0,0,1,.7,1.658,1.724,1.724,0,1,0,3.448,0,2.291,2.291,0,0,1,3.442-1.992,1.717,1.717,0,0,0,2.353-.639,1.753,1.753,0,0,0-.612-2.369.059.059,0,0,0-.021-.01,2.31,2.31,0,0,1,0-3.99,1.756,1.756,0,0,0,.629-2.385,1.72,1.72,0,0,0-2.353-.635,2.263,2.263,0,0,1-1.144.313,2.306,2.306,0,0,1-2.3-2.3,1.724,1.724,0,1,0-3.448,0,2.3,2.3,0,0,1-2.293,2.3,2.269,2.269,0,0,1-1.145-.312,1.72,1.72,0,0,0-2.353.635,1.756,1.756,0,0,0,.629,2.385,2.309,2.309,0,0,1,0,3.99,1.748,1.748,0,0,0-.634,2.379,1.717,1.717,0,0,0,2.353.639.136.136,0,0,1,.027-.016,2.286,2.286,0,0,1,1.117-.295A2.321,2.321,0,0,1,12739.824,21395.6Zm-.827-5.35a3.252,3.252,0,1,1,3.249,3.254A3.257,3.257,0,0,1,12739,21390.248Zm1.5,0a1.748,1.748,0,1,0,1.745-1.746A1.749,1.749,0,0,0,12740.5,21390.248Z" transform="translate(-12730.25 -21378.25)" fill="#2c2c2c"/>
  <rect id="Container" width="24" height="24" fill="none"/>
</svg>
