<svg id="Icon_Outline_Time_circle" data-name="Icon/Outline/Time circle" xmlns="http://www.w3.org/2000/svg" width="24" height="24" viewBox="0 0 24 24">
  <rect id="Container" width="24" height="24" fill="none"/>
  <path id="Time_circle" data-name="Time circle" d="M12595,21183a10,10,0,1,1,10,10A10.007,10.007,0,0,1,12595,21183Zm1.5,0a8.5,8.5,0,1,0,8.5-8.5A8.509,8.509,0,0,0,12596.5,21183Zm12.675,1.518-4.526-.076a.749.749,0,0,1-.739-.75v-4.844a.75.75,0,1,1,1.5,0v4.105l3.793.064a.75.75,0,0,1-.011,1.5Z" transform="translate(-12593 -21171)" fill="#2c2c2c"/>
</svg>
