<svg id="Icon_Outline_Graph" data-name="Icon/Outline/Graph" xmlns="http://www.w3.org/2000/svg" width="24" height="24" viewBox="0 0 24 24">
  <rect id="Container" width="24" height="24" fill="none"/>
  <path id="Graph" d="M12535,21161.354a8.977,8.977,0,0,1,2.285-5.936,6.265,6.265,0,0,1,4.213-2.363,2.076,2.076,0,0,1,1.509.578c.579.58.616,1.611.664,2.918.043,1.279.1,2.879.776,3.555a3.848,3.848,0,0,0,2.422.547c.356,0,.729-.012,1.09-.027s.7-.021,1.036-.021a3.479,3.479,0,0,1,2.476.654c.579.584.59,1.689.031,3.039a9.491,9.491,0,0,1-2.783,3.639,8.425,8.425,0,0,1-13.719-6.582Zm3.411-4.941a7.48,7.48,0,0,0-1.912,4.941,6.956,6.956,0,0,0,6.954,6.949,7.4,7.4,0,0,0,6.168-3.629,3.712,3.712,0,0,0,.771-2.369c-.09-.07-.393-.2-1.4-.2-.309,0-.638.012-.988.021-.372.016-.755.027-1.138.027a4.863,4.863,0,0,1-3.485-.982c-1.094-1.1-1.158-3.02-1.216-4.564a6.381,6.381,0,0,0-.224-1.912.607.607,0,0,0-.446-.133A4.91,4.91,0,0,0,12538.411,21156.412Zm7.369,2.23c-.68-.684-.76-2.523-.707-3.941.032-.908.181-3.086.84-3.842a2.542,2.542,0,0,1,1.987-.859,6.748,6.748,0,0,1,3.9,1.668,8.215,8.215,0,0,1,2.662,3.438,2.577,2.577,0,0,1-.729,3.07c-1.057.824-3.687,1.127-5.2,1.127C12546.444,21159.3,12545.945,21158.809,12545.78,21158.643Zm1.27-6.8a8.075,8.075,0,0,0-.478,2.885,7,7,0,0,0,.271,2.857,4.145,4.145,0,0,0,1.7.225,9.6,9.6,0,0,0,4.266-.809c.154-.121.568-.451.239-1.4-.648-1.881-3.437-4.1-5.143-4.1A1.058,1.058,0,0,0,12547.05,21151.838Z" transform="translate(-12532.832 -21147.902)" fill="#2c2c2c"/>
</svg>
