<svg id="Icon_Outline_Cake" data-name="Icon/Outline/Cake" xmlns="http://www.w3.org/2000/svg" width="24" height="24" viewBox="0 0 24 24">
  <rect id="Container" width="24" height="24" fill="none"/>
  <path id="Cake" d="M14318.15,21521.371c-1.793-1.285-2.149-3.83-2.149-7.523v-.039a3.833,3.833,0,0,1,3.829-3.807h12.1a3.833,3.833,0,0,1,3.829,3.8v.049c0,3.693-.361,6.238-2.155,7.523-1.571,1.129-3.889,1.129-7.729,1.129S14319.717,21522.5,14318.15,21521.371Zm.875-1.215c1.178.842,3.436.842,6.849.842s5.677,0,6.854-.848c.766-.547,1.205-1.566,1.4-3.395a4.5,4.5,0,0,1-2.547.742,5.593,5.593,0,0,1-3.284-1.355,4.215,4.215,0,0,0-2.42-1.08,4.289,4.289,0,0,0-2.4,1.053,5.88,5.88,0,0,1-3.457,1.383,4.156,4.156,0,0,1-2.388-.715C14317.83,21518.594,14318.268,21519.607,14319.025,21520.156Zm10.144-5.234a4.243,4.243,0,0,0,2.415,1.08,2.776,2.776,0,0,0,2.058-.783,2.019,2.019,0,0,0,.615-1.33c0-.014,0-.027,0-.041v-.018a2.332,2.332,0,0,0-2.328-2.332h-12.1a2.333,2.333,0,0,0-2.328,2.328,2.364,2.364,0,0,0,2.518,2.176,4.511,4.511,0,0,0,2.6-1.117,4.66,4.66,0,0,1,6.546.037Zm-5.25-6.146a3.1,3.1,0,0,1-1.112-2.117,3.13,3.13,0,0,1,.713-2.285c0-.006.016-.012.021-.021a3.991,3.991,0,0,1,.675-.6c.395-.312.529-.475.514-.627a1.021,1.021,0,0,1,.216-.826.884.884,0,0,1,.681-.3.971.971,0,0,1,.13.006.759.759,0,0,1,.129.027,1.777,1.777,0,0,1,.783.5c.173.184,1.545,1.68,1.972,2.307a2.725,2.725,0,0,1,.341,2.16,3.127,3.127,0,0,1-5.062,1.771Zm1.21-3.836a.078.078,0,0,1-.032.021,3.015,3.015,0,0,0-.433.385,1.633,1.633,0,0,0-.361,1.178,1.624,1.624,0,0,0,3.208.172s.006-.006.006-.01a1.318,1.318,0,0,0-.108-.994c-.237-.34-.913-1.107-1.409-1.664A3.285,3.285,0,0,1,14325.129,21504.939Z" transform="translate(-14313.879 -21500.25)" fill="#2c2c2c"/>
</svg>
