<svg id="Icon_Outline_Exoprt" data-name="Icon/Outline/Exoprt" xmlns="http://www.w3.org/2000/svg" width="24" height="24" viewBox="0 0 24 24">
  <rect id="Container" width="24" height="24" fill="none"/>
  <path id="Export" d="M14679.382,21604.031c-1.691-1.035-2.381-3.02-2.381-6.848,0-2.906.369-4.646,1.242-5.824a5.675,5.675,0,0,1,4.316-1.924.748.748,0,1,1,.141,1.49c-1.729.162-2.673.543-3.248,1.328-.661.885-.954,2.408-.954,4.93,0,3.23.482,4.848,1.664,5.574,1.27.775,3.481.775,6.838.775s5.568,0,6.837-.775c1.183-.727,1.665-2.344,1.665-5.574,0-2.521-.293-4.045-.954-4.93-.575-.785-1.519-1.166-3.248-1.328a.748.748,0,1,1,.141-1.49,5.669,5.669,0,0,1,4.316,1.924c.873,1.178,1.241,2.918,1.241,5.824,0,3.828-.688,5.813-2.38,6.848-1.621,1-4.007,1-7.618,1S14681.009,21605.035,14679.382,21604.031Zm6.989-7.238v-10.227l-1.632,1.643a.752.752,0,0,1-1.063-1.062l2.912-2.928a.75.75,0,0,1,.417-.209h0a.172.172,0,0,0,.03,0h.008l.024,0a.033.033,0,0,0,.014,0h.075a.005.005,0,0,0,0,0,.741.741,0,0,1,.488.215l2.917,2.928a.751.751,0,0,1,.217.531.741.741,0,0,1-.217.531.752.752,0,0,1-1.062,0l-1.632-1.639v10.223a.751.751,0,0,1-1.5,0Z" transform="translate(-14675 -21582.539)" fill="#2c2c2c"/>
</svg>
