<svg id="Icon_Outline_Arrow_-Left_2" data-name="Icon/Outline/Arrow -Left 2" xmlns="http://www.w3.org/2000/svg" width="24" height="24" viewBox="0 0 24 24">
  <rect id="Container" width="24" height="24" fill="none"/>
  <path id="Arrow_right" data-name="Arrow right" d="M9.04.395a.75.75,0,0,0,.305,1.016,24.775,24.775,0,0,1,2.938,1.921,8.536,8.536,0,0,1,2.523,2.691H.75a.75.75,0,0,0,0,1.5H14.808a8.506,8.506,0,0,1-2.525,2.694,24.712,24.712,0,0,1-2.939,1.921.75.75,0,0,0,.712,1.32,25.931,25.931,0,0,0,3.126-2.04c2.2-1.689,3.319-3.252,3.319-4.642s-1.117-2.955-3.318-4.645A25.894,25.894,0,0,0,10.056.09a.749.749,0,0,0-1.016.3Z" transform="translate(20.251 18.773) rotate(180)" fill="#2c2c2c"/>
</svg>
