<svg id="Icon_Outline_History" data-name="Icon/Outline/History" xmlns="http://www.w3.org/2000/svg" width="24" height="24" viewBox="0 0 24 24">
  <rect id="Container" width="24" height="24" fill="none"/>
  <path id="History" d="M12539,21185a10,10,0,0,1,18.649-5.025.746.746,0,0,1-.271,1.025.754.754,0,0,1-1.026-.271,8.5,8.5,0,1,0-1.793,10.7.751.751,0,0,1,.979,1.139A10,10,0,0,1,12539,21185Zm18.782,8.725a.745.745,0,0,1-.537-.91,14.366,14.366,0,0,0,.293-1.648c.165-1.437-.1-1.762-.1-1.762s-.33-.266-1.767-.1a12.457,12.457,0,0,0-1.644.3.75.75,0,0,1-.378-1.451,14.987,14.987,0,0,1,1.852-.336c1.511-.176,2.463-.006,3,.531s.7,1.484.531,2.99a15.216,15.216,0,0,1-.335,1.852.754.754,0,0,1-.729.563A.806.806,0,0,1,12557.78,21193.725Zm-4.6-7.209-4.532-.074a.744.744,0,0,1-.734-.75v-4.846a.75.75,0,0,1,1.5,0v4.107l3.787.063a.75.75,0,0,1-.01,1.5Z" transform="translate(-12537 -21173)" fill="#2c2c2c"/>
</svg>
