<svg id="Icon_Outline_Kabab" data-name="Icon/Outline/Kabab" xmlns="http://www.w3.org/2000/svg" width="24" height="24" viewBox="0 0 24 24">
  <rect id="Container" width="24" height="24" fill="none"/>
  <path id="kabab" d="M7.421,2.963C7.421.889,8.305,0,10.38,0s2.959.886,2.959,2.959-.885,2.959-2.959,2.959S7.421,5.037,7.421,2.963Zm1.763-1.2a1.823,1.823,0,0,0-.263,1.2,1.823,1.823,0,0,0,.263,1.2,1.821,1.821,0,0,0,1.2.264,1.821,1.821,0,0,0,1.2-.264,1.823,1.823,0,0,0,.263-1.2,1.823,1.823,0,0,0-.263-1.2,1.827,1.827,0,0,0-1.2-.264A1.827,1.827,0,0,0,9.184,1.768ZM0,2.963C0,.889.886,0,2.96,0S5.919.889,5.919,2.963,5.034,5.922,2.96,5.922,0,5.037,0,2.963Zm1.763-1.2a1.822,1.822,0,0,0-.264,1.2,1.822,1.822,0,0,0,.264,1.2,1.818,1.818,0,0,0,1.2.264,1.817,1.817,0,0,0,1.2-.264,1.822,1.822,0,0,0,.264-1.2,1.822,1.822,0,0,0-.264-1.2A1.822,1.822,0,0,0,2.96,1.5,1.824,1.824,0,0,0,1.764,1.768ZM14.838,2.96C14.838.886,15.723,0,17.8,0s2.959.886,2.959,2.96S19.872,5.918,17.8,5.918,14.838,5.034,14.838,2.96Zm1.764-1.2a1.818,1.818,0,0,0-.264,1.2,1.818,1.818,0,0,0,.264,1.2,1.822,1.822,0,0,0,1.2.264,1.822,1.822,0,0,0,1.2-.264,1.82,1.82,0,0,0,.264-1.2,1.818,1.818,0,0,0-.264-1.2A1.817,1.817,0,0,0,17.8,1.5,1.817,1.817,0,0,0,16.6,1.764Z" transform="translate(1.548 9.039)" fill="#2c2c2c"/>
</svg>
