<svg id="Icon_Outline_Edit" data-name="Icon/Outline/Edit" xmlns="http://www.w3.org/2000/svg" width="24" height="24" viewBox="0 0 24 24">
  <rect id="Container" width="24" height="24" fill="none"/>
  <path id="Edit" d="M12723.288,21885.883a.744.744,0,0,1-.479-.357c-.082-.137-1.867-3.334.144-6.016,1.741-2.316,6.75-9,6.75-9a3.792,3.792,0,0,1,6.064,4.553s-.5.658-1.227,1.635a.774.774,0,0,1-.07.113.73.73,0,0,1-.083.09c-1.62,2.16-4.231,5.639-5.371,7.16a5.233,5.233,0,0,1-4.334,1.955A6.929,6.929,0,0,1,12723.288,21885.883Zm.862-5.471a4.106,4.106,0,0,0-.192,4.059,5.074,5.074,0,0,0,.725.049,3.786,3.786,0,0,0,3.131-1.355c1.06-1.408,3.377-4.5,5-6.658l-3.666-2.756C12727.53,21875.908,12725.222,21878.984,12724.15,21880.412Zm9.565-5.107.854-1.139a2.293,2.293,0,0,0-3.669-2.752l-.853,1.137Zm-1.876,10.451a.75.75,0,1,1,0-1.5h6.377a.75.75,0,1,1,0,1.5Z" transform="translate(-12718.484 -21865.508)" fill="#2c2c2c"/>
</svg>
