<svg id="Icon_Outline_Headphones" data-name="Icon/Outline/Headphones" xmlns="http://www.w3.org/2000/svg" width="24" height="24" viewBox="0 0 24 24">
  <rect id="Container" width="24" height="24" fill="none"/>
  <path id="Headphones" d="M14.378,19.2a.536.536,0,0,1-.05-.028,2.908,2.908,0,0,1-1.27-1.717,11.141,11.141,0,0,1-.342-3.212c0-2.907.422-4.2,1.613-4.928.016-.01.032-.02.049-.028A2.57,2.57,0,0,1,15.5,9V7.178A5.757,5.757,0,0,0,3.992,7.156V9a2.556,2.556,0,0,1,1.124.292.55.55,0,0,1,.05.028c1.189.733,1.61,2.023,1.61,4.929a11.136,11.136,0,0,1-.341,3.211,2.907,2.907,0,0,1-1.269,1.717.55.55,0,0,1-.05.028,2.553,2.553,0,0,1-1.184.292,3.27,3.27,0,0,1-1.451-.374A4.307,4.307,0,0,1,0,15.261V13.23A4.306,4.306,0,0,1,2.482,9.372l.01,0V7.138A7.257,7.257,0,0,1,17,7.163v2.2l.01,0A4.309,4.309,0,0,1,19.5,13.232v2.031a4.309,4.309,0,0,1-2.482,3.859,3.267,3.267,0,0,1-1.45.374A2.56,2.56,0,0,1,14.378,19.2Zm.712-8.592c-.446.283-.873.827-.873,3.635s.446,3.363.874,3.637a1.057,1.057,0,0,0,.472.113,1.829,1.829,0,0,0,.79-.221A2.822,2.822,0,0,0,18,15.263V13.232a2.819,2.819,0,0,0-1.642-2.512,1.816,1.816,0,0,0-.789-.221A1.056,1.056,0,0,0,15.09,10.612Zm-11.948.107A2.815,2.815,0,0,0,1.5,13.23v2.031a2.817,2.817,0,0,0,1.641,2.513A1.826,1.826,0,0,0,3.932,18a1.062,1.062,0,0,0,.473-.112c.427-.274.873-.833.873-3.636S4.85,10.895,4.4,10.61a1.057,1.057,0,0,0-.473-.112A1.819,1.819,0,0,0,3.142,10.719Z" transform="translate(2.25 2.25)" fill="#2c2c2c"/>
</svg>
