<svg id="Icon_Outline_Delete_offer" data-name="Icon/Outline/Delete offer" xmlns="http://www.w3.org/2000/svg" width="24" height="24" viewBox="0 0 24 24">
  <rect id="Container" width="24" height="24" fill="none"/>
  <path id="End_offer" data-name="End offer" d="M8.138,22.36v-.008a8.5,8.5,0,0,1-3.7-2.25A8.683,8.683,0,0,1,3.994,8.537,11.449,11.449,0,0,1,5.856,6.854L6,6.743c1.65-1.285,2.569-2.3,2.409-3.7a1.7,1.7,0,0,1,.352-1.43,1.292,1.292,0,0,1,1.115-.34,3.6,3.6,0,0,1,1.8,1.049c.039.033.072.067.111.1C14.229,4.582,16.1,8.1,14.781,11.093a.751.751,0,1,1-1.373-.608,4.466,4.466,0,0,0-.178-3.663,9.769,9.769,0,0,0-2.441-3.28c-.038-.033-.072-.069-.115-.105a4.3,4.3,0,0,0-.776-.6v.024c.3,2.521-1.746,4.117-2.973,5.072l-.15.116A10.262,10.262,0,0,0,5.151,9.5a7.152,7.152,0,0,0,9.2,10.7,7.009,7.009,0,0,0,3.3-4.69,6.9,6.9,0,0,0-.665-4.759.748.748,0,1,1,1.286-.766c.01.016.02.034.029.051A8.314,8.314,0,0,1,19.12,15.8,8.649,8.649,0,0,1,8.138,22.361ZM6.381,16.971h0a.75.75,0,0,1,.533-.893h.025a.744.744,0,0,1,.9.547l0,0v.006a1.409,1.409,0,0,0,1.522,1.288l.108-.013a.749.749,0,0,1,.3,1.468l-.021,0-.04.006a3,3,0,0,1-.5.041,2.9,2.9,0,0,1-2.825-2.459M17.25,6.23l.885-.884-.915-.915a.75.75,0,0,1,1.061-1.06l.914.914.888-.887a.75.75,0,1,1,1.06,1.06l-.887.888.919.92a.75.75,0,0,1-1.061,1.06l-.919-.92-.884.886A.751.751,0,0,1,17.25,6.23" fill="#2c2c2c"/>
</svg>
