<svg id="Icon_Outline_Arrow_-_Right_4" data-name="Icon/Outline/Arrow - Right 4" xmlns="http://www.w3.org/2000/svg" width="24" height="24" viewBox="0 0 24 24">
  <rect id="Container" width="24" height="24" fill="none"/>
  <path id="double_arrow_right" data-name="double arrow right" d="M12573.106,21141.133a.751.751,0,0,1,.26-1.029,34.9,34.9,0,0,0,3.428-2.377c2.892-2.309,3.205-3.549,3.205-3.975s-.313-1.676-3.216-3.984a34.29,34.29,0,0,0-3.417-2.371.751.751,0,0,1-.26-1.029.743.743,0,0,1,1.023-.26,34.863,34.863,0,0,1,3.587,2.482c2.547,2.027,3.783,3.715,3.783,5.162s-1.236,3.131-3.783,5.158a35.229,35.229,0,0,1-3.587,2.482.745.745,0,0,1-1.023-.26Zm-9,0a.758.758,0,0,1,.265-1.029,35.434,35.434,0,0,0,3.428-2.377c2.892-2.309,3.205-3.549,3.205-3.975s-.313-1.676-3.216-3.984a34.162,34.162,0,0,0-3.417-2.371.749.749,0,1,1,.765-1.289,34.983,34.983,0,0,1,3.587,2.482c2.546,2.027,3.782,3.715,3.782,5.162s-1.236,3.131-3.782,5.158a35.352,35.352,0,0,1-3.587,2.482.741.741,0,0,1-.384.105A.751.751,0,0,1,12564.1,21141.133Z" transform="translate(-12560.75 -21121.75)" fill="#2c2c2c"/>
</svg>
