<svg id="Icon_Outline_Notification" data-name="Icon/Outline/Notification" xmlns="http://www.w3.org/2000/svg" width="24" height="24" viewBox="0 0 24 24">
  <rect id="Container" width="24" height="24" fill="none"/>
  <path id="Notification" d="M5.261,19.247a.75.75,0,0,1,1.119-1,2.35,2.35,0,0,0,1.748.841,2.359,2.359,0,0,0,1.753-.841.75.75,0,1,1,1.118,1,3.842,3.842,0,0,1-2.871,1.34A3.829,3.829,0,0,1,5.261,19.247ZM4.02,16.22a6.608,6.608,0,0,1-3.471-2.2A3.168,3.168,0,0,1,.26,10.967l.016-.038c.8-1.758.8-1.758.766-2.53-.01-.248-.022-.555-.022-.98A8.1,8.1,0,0,1,2.695,2.63,6.643,6.643,0,0,1,8.131,0a6.644,6.644,0,0,1,5.436,2.63,8.1,8.1,0,0,1,1.675,4.79c0,.425-.013.733-.022.98-.032.772-.032.772.766,2.53a.293.293,0,0,1,.016.039,3.166,3.166,0,0,1-.289,3.054,6.613,6.613,0,0,1-3.472,2.2,14.444,14.444,0,0,1-4.109.628A14.45,14.45,0,0,1,4.02,16.22Zm-1.5-8.8c0,.394.012.685.021.919.045,1.1-.02,1.274-.889,3.191a1.657,1.657,0,0,0,.135,1.645c.931,1.36,3.956,2.173,6.344,2.173s5.413-.813,6.343-2.173a1.655,1.655,0,0,0,.136-1.645c-.869-1.918-.934-2.093-.889-3.191.009-.234.021-.525.021-.919,0-1.931-1.371-5.919-5.611-5.919S2.52,5.488,2.52,7.42Z" transform="translate(3.87 1.707)" fill="#2c2c2c"/>
</svg>
