<svg id="Icon_Outline_inestagram" data-name="Icon/Outline/inestagram" xmlns="http://www.w3.org/2000/svg" width="24" height="24" viewBox="0 0 24 24">
  <rect id="Container" width="24" height="24" fill="none"/>
  <path id="Insestagram" d="M2.244,17.757C.692,16.205,0,13.813,0,10S.692,3.794,2.244,2.244,6.187,0,10,0s6.206.692,7.757,2.244S20,6.187,20,10s-.692,6.206-2.243,7.757S13.813,20,10,20,3.794,19.308,2.244,17.757ZM1.5,10c0,6.514,1.985,8.5,8.5,8.5s8.5-1.986,8.5-8.5S16.514,1.5,10,1.5,1.5,3.486,1.5,10ZM5.25,10A4.75,4.75,0,1,1,10,14.75,4.756,4.756,0,0,1,5.25,10Zm1.5,0A3.25,3.25,0,1,0,10,6.75,3.254,3.254,0,0,0,6.75,10ZM15,5.488a.75.75,0,0,1,0-1.5h.009a.75.75,0,0,1,0,1.5Z" transform="translate(2 2)" fill="#2c2c2c"/>
</svg>
