<svg id="Icon_Outline_Gender" data-name="Icon/Outline/Gender" xmlns="http://www.w3.org/2000/svg" width="24" height="24" viewBox="0 0 24 24">
  <rect id="Container" width="24" height="24" fill="none"/>
  <path id="Gender" d="M14488,21511.748a4.748,4.748,0,0,1,7.533-3.844l3.4-3.4h-1.183a.75.75,0,0,1,0-1.5h3a.749.749,0,0,1,.751.75v3a.75.75,0,1,1-1.5,0v-1.182l-3.4,3.4a4.749,4.749,0,1,1-8.6,2.779Zm1.5,0a3.251,3.251,0,1,0,3.251-3.25A3.255,3.255,0,0,0,14489.5,21511.748Zm-7.278-1.469a.736.736,0,0,1,0-1.057l1.478-1.48-.8-.783a.748.748,0,1,1,1.048-1.068l.809.791,2.146-2.148a4.747,4.747,0,1,1,1.061,1.063l-2.137,2.137.837.82a.75.75,0,0,1,.011,1.059.749.749,0,0,1-1.063.01l-.845-.828-1.488,1.486a.739.739,0,0,1-1.058,0Zm5.28-8.531a3.248,3.248,0,1,0,3.246-3.25A3.254,3.254,0,0,0,14487.5,21501.748Z" transform="translate(-14479.75 -21494.75)" fill="#2c2c2c"/>
</svg>
