<svg id="Icon_Outline_Arrow_-_Right_2" data-name="Icon/Outline/Arrow - Right 2" xmlns="http://www.w3.org/2000/svg" width="24" height="24" viewBox="0 0 24 24">
  <rect id="Container" width="24" height="24" fill="none"/>
  <path id="Arrow_right" data-name="Arrow right" d="M9.04,13.154a.75.75,0,0,1,.305-1.016,24.774,24.774,0,0,0,2.938-1.921,8.536,8.536,0,0,0,2.523-2.691H.75a.75.75,0,0,1,0-1.5H14.808a8.506,8.506,0,0,0-2.525-2.694A24.711,24.711,0,0,0,9.344,1.41.75.75,0,0,1,10.056.09a25.93,25.93,0,0,1,3.126,2.04C15.384,3.82,16.5,5.382,16.5,6.773s-1.117,2.955-3.318,4.645a25.893,25.893,0,0,1-3.127,2.041.748.748,0,0,1-1.016-.3Z" transform="translate(3.75 5.225)" fill="#2c2c2c"/>
</svg>
