<svg id="Icon_Outlin_Street_number" data-name="Icon/Outlin/Street number" xmlns="http://www.w3.org/2000/svg" width="24" height="24" viewBox="0 0 24 24">
  <rect id="Container" width="24" height="24" fill="none"/>
  <path id="Stret_number" data-name="Stret number" d="M14312.29,21581.217a9.25,9.25,0,0,1-3.229-7.34c0-1.912-.027-3.3-.043-4.322-.021-1.24-.032-1.924.016-2.416a1.972,1.972,0,0,1,.585-1.311,12.351,12.351,0,0,1,15.73,0,1.967,1.967,0,0,1,.585,1.311c.049.492.038,1.176.017,2.416-.021,1.018-.044,2.4-.044,4.322a9.253,9.253,0,0,1-3.228,7.34,7.378,7.378,0,0,1-10.39,0Zm-1.608-14.328c-.2.189-.2.51-.163,2.645.017,1.018.044,2.416.044,4.344a7.8,7.8,0,0,0,2.7,6.2,5.9,5.9,0,0,0,8.45,0,7.8,7.8,0,0,0,2.7-6.2c0-1.928.027-3.326.043-4.35.038-2.129.033-2.449-.162-2.639a10.883,10.883,0,0,0-13.606,0Zm6.792,6.473a4.757,4.757,0,0,1,.678-2.777,2.248,2.248,0,0,1,1.96-.953q2.438,0,2.438,3.568a4.7,4.7,0,0,1-.666,2.725,2.186,2.186,0,0,1-1.912.949Q14317.476,21576.873,14317.474,21573.361Zm1.565-.037c0,1.576.331,2.367.98,2.367s.959-.812.959-2.443-.314-2.437-.937-2.437C14319.375,21570.811,14319.039,21571.645,14319.039,21573.324Zm-5.13,3.424v-5.418a1.687,1.687,0,0,1-.3.213,2.674,2.674,0,0,1-.368.178,3.065,3.065,0,0,1-.406.141c-.136.033-.276.061-.412.082v-1.3a6.507,6.507,0,0,0,1.132-.449,6.87,6.87,0,0,0,.965-.6h.932v7.156Z" transform="translate(-14305.484 -21561)" fill="#2c2c2c"/>
</svg>
