<svg id="Icon_Outline_Wallet" data-name="Icon/Outline/Wallet" xmlns="http://www.w3.org/2000/svg" width="24" height="24" viewBox="0 0 24 24">
  <rect id="Container" width="24" height="24" fill="none"/>
  <path id="Wallet" d="M2.277,16.512C.7,15.067,0,12.839,0,9.289S.7,3.511,2.277,2.066C3.833.637,6.231,0,10.051,0s6.217.637,7.772,2.066A7.052,7.052,0,0,1,19.9,6.371a.749.749,0,0,1,.031.2A19.009,19.009,0,0,1,20.1,9.289c0,3.55-.7,5.777-2.277,7.223-1.555,1.428-3.953,2.066-7.772,2.066S3.833,17.941,2.277,16.512ZM3.291,3.17C2.053,4.307,1.5,6.195,1.5,9.289s.553,4.981,1.791,6.118c1.259,1.156,3.343,1.671,6.76,1.671s5.5-.516,6.758-1.67a5.313,5.313,0,0,0,1.516-2.947h-3a3.313,3.313,0,0,1,0-6.627h2.94A5.126,5.126,0,0,0,16.809,3.17C15.551,2.015,13.467,1.5,10.051,1.5S4.549,2.015,3.291,3.17ZM13.507,9.148a1.816,1.816,0,0,0,1.814,1.814h3.217c.043-.514.064-1.07.064-1.672a19.288,19.288,0,0,0-.09-1.954H15.321A1.815,1.815,0,0,0,13.507,9.148Zm1.954.691a.75.75,0,1,1,0-1.5h.3a.75.75,0,1,1,0,1.5ZM5.642,5.929a.75.75,0,0,1,0-1.5H9.7a.75.75,0,0,1,0,1.5Z" transform="translate(1.949 2.711)" fill="#2c2c2c"/>
</svg>
