<svg id="Icon_Outline_Telegram" data-name="Icon/Outline/Telegram" xmlns="http://www.w3.org/2000/svg" width="24" height="24" viewBox="0 0 24 24">
  <rect id="Container" width="24" height="24" fill="none"/>
  <path id="Telegram" d="M9.881,14.965c-.517-1.6-.895-3.18-1.068-3.946-.747-.169-2.264-.532-3.821-1.028A19.353,19.353,0,0,1,1.9,8.759C.731,8.14.134,7.52.019,6.806-.064,6.29.083,5.534,1.254,4.858,4.377,3.056,14.414,0,18.015,0a2.729,2.729,0,0,1,1.262.228l.034.018h0l.02.012.012.008,0,0a.743.743,0,0,1,.21.21l0,.007.006.01.013.021h0L19.6.554c.2.387.384,1.128.017,3.385a51.054,51.054,0,0,1-1.169,5.126,50.658,50.658,0,0,1-3.478,9.512,2.058,2.058,0,0,1-1.714,1.254C12.01,19.832,10.967,18.33,9.881,14.965Zm1.391-.573c1.123,3.523,1.9,3.907,1.984,3.938.035-.016.189-.106.417-.5a47.782,47.782,0,0,0,3.308-9.08,50.621,50.621,0,0,0,1.142-4.956c.079-.476.13-.866.162-1.185l-8.023,8.023C10.42,11.328,10.783,12.859,11.273,14.392ZM9.948,3.173A44.135,44.135,0,0,0,2,6.158c-.4.228-.485.382-.5.416.031.082.413.861,3.937,1.985C6.974,9.048,8.5,9.411,9.2,9.568l8.023-8.023A45.425,45.425,0,0,0,9.948,3.173Z" transform="translate(1.55 2.5)" fill="#2c2c2c"/>
</svg>
