<svg id="Icon_Outline_Camera" data-name="Icon/Outline/Camera" xmlns="http://www.w3.org/2000/svg" width="24" height="24" viewBox="0 0 24 24">
  <rect id="Container" width="24" height="24" fill="none"/>
  <path id="Camera" d="M1.7,16.578C.284,15.149,0,13.107,0,10.274A11.118,11.118,0,0,1,.7,5.664a4.836,4.836,0,0,1,3.372-2.57,1.181,1.181,0,0,0,.5-.319,3.537,3.537,0,0,0,.281-.507A3.561,3.561,0,0,1,6.526.358,11.9,11.9,0,0,1,9.79,0a10.981,10.981,0,0,1,3.2.361,3.579,3.579,0,0,1,1.672,1.914,3.465,3.465,0,0,0,.275.5,1.176,1.176,0,0,0,.5.32,4.838,4.838,0,0,1,3.372,2.57,11.118,11.118,0,0,1,.7,4.611c0,2.832-.285,4.874-1.7,6.3s-3.91,2.08-8.05,2.08S3.128,18.017,1.7,16.578ZM7.093,1.747c-.384.157-.67.73-.9,1.19a3.717,3.717,0,0,1-.515.848,2.672,2.672,0,0,1-1.171.743l-.026.007A3.416,3.416,0,0,0,2.05,6.309a9.424,9.424,0,0,0-.55,3.965c0,2.451.212,4.183,1.267,5.248,1.122,1.131,3.277,1.636,6.986,1.636s5.863-.5,6.986-1.636c1.055-1.065,1.267-2.8,1.267-5.248a9.424,9.424,0,0,0-.55-3.965,3.417,3.417,0,0,0-2.434-1.774L15,4.528a2.666,2.666,0,0,1-1.171-.745,3.625,3.625,0,0,1-.51-.842c-.238-.481-.509-1.028-.911-1.2A9.707,9.707,0,0,0,9.79,1.5,10.237,10.237,0,0,0,7.093,1.747ZM5.858,10.206a3.9,3.9,0,1,1,3.9,3.9A3.9,3.9,0,0,1,5.858,10.206Zm1.5,0a2.4,2.4,0,1,0,2.395-2.4A2.4,2.4,0,0,0,7.358,10.206Zm7.307-2.749a.75.75,0,0,1,0-1.5h.009a.75.75,0,0,1,0,1.5Z" transform="translate(2.246 2.77)" fill="#2c2c2c"/>
</svg>
