<svg id="Icon_Outline_Add_offer" data-name="Icon/Outline/Add offer" xmlns="http://www.w3.org/2000/svg" width="24" height="24" viewBox="0 0 24 24">
  <rect id="Container" width="24" height="24" fill="none"/>
  <path id="Add_offer" data-name="Add offer" d="M6.137,21.111l0-.008a8.505,8.505,0,0,1-3.7-2.25A8.684,8.684,0,0,1,1.993,7.288,11.355,11.355,0,0,1,3.855,5.605L4,5.494c1.65-1.285,2.569-2.3,2.409-3.705A1.705,1.705,0,0,1,6.761.359,1.29,1.29,0,0,1,7.876.019a3.577,3.577,0,0,1,1.8,1.049c.039.032.072.066.111.1,2.441,2.164,4.311,5.684,2.993,8.676a.75.75,0,1,1-1.373-.608,4.466,4.466,0,0,0-.178-3.664,9.765,9.765,0,0,0-2.441-3.28c-.038-.033-.072-.068-.115-.105a4.234,4.234,0,0,0-.776-.6v.024c.3,2.521-1.746,4.117-2.973,5.072l-.15.117A10.262,10.262,0,0,0,3.15,8.249a7.152,7.152,0,0,0,9.2,10.7,7.009,7.009,0,0,0,3.3-4.69A6.888,6.888,0,0,0,14.985,9.5.749.749,0,1,1,16.3,8.785a8.311,8.311,0,0,1,.819,5.765,8.587,8.587,0,0,1-4,5.684,8.678,8.678,0,0,1-6.982.878ZM4.38,15.722v0a.751.751,0,0,1,.533-.893l.025,0a.744.744,0,0,1,.9.552l0,.006A1.41,1.41,0,0,0,7.36,16.675l.108-.013a.749.749,0,1,1,.277,1.472l-.04.006a3.091,3.091,0,0,1-.5.041A2.906,2.906,0,0,1,4.38,15.722ZM16.445,6.1V4.849H15.152a.75.75,0,1,1,0-1.5h1.293V2.094a.75.75,0,1,1,1.5,0V3.349h1.3a.75.75,0,0,1,0,1.5h-1.3V6.1a.75.75,0,1,1-1.5,0Z" transform="translate(2.001 1.25)" fill="#2c2c2c"/>
</svg>
