<svg id="Icon_Outline_Message" data-name="Icon/Outline/Message" xmlns="http://www.w3.org/2000/svg" width="24" height="24" viewBox="0 0 24 24">
  <path id="Union_2" data-name="Union 2" d="M2.315,17.531C.714,16,0,13.635,0,9.867S.714,3.735,2.315,2.2,6.36,0,10.274,0s6.368.68,7.96,2.2,2.315,3.9,2.315,7.664S19.833,16,18.233,17.531s-4.046,2.2-7.96,2.2S3.906,19.054,2.315,17.531ZM1.5,9.867c0,6.412,2.049,8.367,8.773,8.367s8.774-1.956,8.774-8.367S17,1.5,10.274,1.5,1.5,3.455,1.5,9.867Zm4.615-.458a20.315,20.315,0,0,1-2-2.009.75.75,0,1,1,1.147-.966c1.17,1.386,3.568,3.586,5.02,3.586s3.825-2.2,4.982-3.583a.75.75,0,0,1,1.152.96,20.063,20.063,0,0,1-1.979,2.01c-1.6,1.4-2.993,2.113-4.154,2.113S7.722,10.809,6.115,9.409Z" transform="translate(1.727 2.25)" fill="#2c2c2c"/>
  <rect id="Container" width="24" height="24" fill="none"/>
</svg>
