<svg id="Icon_Outline_Discount" data-name="Icon/Outline/Discount" xmlns="http://www.w3.org/2000/svg" width="24" height="24" viewBox="0 0 24 24">
  <rect id="Container" width="24" height="24" fill="none"/>
  <path id="Discount" d="M12616,21223a3,3,0,1,1,3,3A3,3,0,0,1,12616,21223Zm1.5,0a1.5,1.5,0,1,0,1.5-1.5A1.5,1.5,0,0,0,12617.5,21223Zm-9.029,2.529a.746.746,0,0,1,0-1.059l12-12a.75.75,0,0,1,1.06,1.061l-12,12a.765.765,0,0,1-.532.219A.742.742,0,0,1,12608.473,21225.531ZM12608,21215a3,3,0,1,1,3,3A3,3,0,0,1,12608,21215Zm1.5,0a1.5,1.5,0,1,0,1.5-1.5A1.5,1.5,0,0,0,12609.5,21215Z" transform="translate(-12603 -21207)" fill="#2c2c2c"/>
</svg>
