<svg id="Icon_Outline_Feedback" data-name="Icon/Outline/Feedback" xmlns="http://www.w3.org/2000/svg" width="24" height="24" viewBox="0 0 24 24">
  <rect id="Container" width="24" height="24" fill="none"/>
  <path id="Feedback" d="M13171.818,21311.16a.773.773,0,0,1-.486-.359c-.059-.111-1.529-2.732.128-4.936l5.365-7.146a3.161,3.161,0,1,1,5.054,3.8l-.959,1.279a.894.894,0,0,1-.067.107.844.844,0,0,1-.088.1l-4.245,5.656a4.3,4.3,0,0,1-3.562,1.615A5.6,5.6,0,0,1,13171.818,21311.16Zm.846-4.4a3.038,3.038,0,0,0-.172,2.984c.129.01.289.025.466.025a2.861,2.861,0,0,0,2.364-1.016l3.874-5.162-2.659-2Zm7.434-4.369.583-.777a1.67,1.67,0,0,0-.331-2.332,1.63,1.63,0,0,0-1-.33,1.648,1.648,0,0,0-1.332.662l-.585.781Zm-11.536,8.354a6.425,6.425,0,0,1-4.7-3.006c-.888-1.52-1.3-3.664-1.3-6.744,0-3.8.626-6.184,2.032-7.729,1.423-1.568,3.615-2.268,7.108-2.268a12.716,12.716,0,0,1,5.017.8,5.821,5.821,0,0,1,3.038,2.861.75.75,0,0,1-1.343.67c-1-2.012-2.947-2.836-6.712-2.836-3.033,0-4.884.551-6,1.781-1.134,1.252-1.637,3.322-1.637,6.719,0,2.8.348,4.7,1.1,5.984a4.913,4.913,0,0,0,3.68,2.295.746.746,0,0,1,.6.871.754.754,0,0,1-.738.615A.71.71,0,0,1,13168.562,21310.748Zm-.486-8.82a.749.749,0,1,1,0-1.5h3.626a.749.749,0,1,1,0,1.5Zm0-4a.749.749,0,1,1,0-1.5h2.76a.749.749,0,0,1,0,1.5Z" transform="translate(-13159.702 -21289)" fill="#2c2c2c"/>
</svg>
