<svg id="Icon_Outline_File" data-name="Icon/Outline/File" xmlns="http://www.w3.org/2000/svg" width="24" height="24" viewBox="0 0 24 24">
  <path id="Union_1" data-name="Union 1" d="M2.03,17.73C.626,16.183,0,13.8,0,10S.626,3.818,2.03,2.27C3.454.7,5.648,0,9.141,0s5.687.7,7.111,2.27c1.4,1.548,2.029,3.932,2.029,7.73s-.625,6.183-2.029,7.73C14.828,19.3,12.635,20,9.141,20S3.454,19.3,2.03,17.73ZM3.141,3.278C2.006,4.529,1.5,6.6,1.5,10s.506,5.471,1.641,6.723c1.115,1.229,2.966,1.778,6,1.778s4.885-.549,6-1.778C16.276,15.471,16.782,13.4,16.782,10s-.507-5.471-1.641-6.722c-1.115-1.229-2.965-1.778-6-1.778S4.256,2.048,3.141,3.278ZM5.516,14.446a.75.75,0,1,1,0-1.5h7.22a.75.75,0,1,1,0,1.5Zm0-3.759a.75.75,0,1,1,0-1.5h7.22a.75.75,0,0,1,0,1.5Zm0-3.759a.75.75,0,0,1,0-1.5H8.271a.75.75,0,0,1,0,1.5Z" transform="translate(2.859 2.25)" fill="#2c2c2c"/>
  <rect id="Container" width="24" height="24" fill="none"/>
</svg>
