<svg id="Icon_Outline_Pin_location" data-name="Icon/Outline/Pin location" xmlns="http://www.w3.org/2000/svg" width="24" height="24" viewBox="0 0 24 24">
  <rect id="Container" width="24" height="24" fill="none"/>
  <path id="Pin_location" data-name="Pin location" d="M2.822,16.022A12.8,12.8,0,0,1,0,8.348,8.309,8.309,0,0,1,8.249,0,8.309,8.309,0,0,1,16.5,8.348a12.8,12.8,0,0,1-2.822,7.673C12,18.167,9.916,19.5,8.249,19.5S4.5,18.167,2.822,16.022ZM1.5,8.348A11.272,11.272,0,0,0,4,15.1C5.364,16.834,7.07,18,8.249,18s2.886-1.166,4.247-2.9A11.272,11.272,0,0,0,15,8.348,6.808,6.808,0,0,0,8.249,1.5,6.807,6.807,0,0,0,1.5,8.348Zm3.509.113a3.25,3.25,0,1,1,3.25,3.249A3.254,3.254,0,0,1,5.009,8.462Zm1.5,0a1.75,1.75,0,1,0,1.75-1.751A1.751,1.751,0,0,0,6.51,8.462Z" transform="translate(3.75 2.25)" fill="#2c2c2c"/>
</svg>
