<svg id="Icon_Outline_Blood" data-name="Icon/Outline/Blood" xmlns="http://www.w3.org/2000/svg" width="24" height="24" viewBox="0 0 24 24">
  <path id="Union_2" data-name="Union 2" d="M0-20.849a12.8,12.8,0,0,1,2.822-7.673C4.5-30.668,6.584-32,8.25-32S12-30.668,13.677-28.522A12.8,12.8,0,0,1,16.5-20.849,8.309,8.309,0,0,1,8.25-12.5,8.309,8.309,0,0,1,0-20.849ZM4-27.6a11.278,11.278,0,0,0-2.5,6.748A6.807,6.807,0,0,0,8.25-14,6.807,6.807,0,0,0,15-20.849,11.274,11.274,0,0,0,12.5-27.6c-1.361-1.737-3.067-2.9-4.246-2.9S5.364-29.334,4-27.6ZM10.6-17.129l-.011-.023A.751.751,0,0,1,11-18.13c.853-.346,1.508-2.037,1.348-3.479a.75.75,0,0,1,.662-.828.75.75,0,0,1,.828.662c.211,1.893-.6,4.356-2.274,5.036a.751.751,0,0,1-.282.055A.748.748,0,0,1,10.6-17.129Z" transform="translate(3.75 34.25)" fill="#2c2c2c"/>
  <rect id="Container" width="24" height="24" fill="none"/>
</svg>
