<svg id="Icon_Outline_Admin" data-name="Icon/Outline/Admin" xmlns="http://www.w3.org/2000/svg" width="24" height="24" viewBox="0 0 24 24">
  <rect id="Container" width="24" height="24" fill="none"/>
  <path id="Admin" d="M14.745,19.5A2.057,2.057,0,0,1,12.7,17.429a.073.073,0,0,0-.009-.031.062.062,0,0,0-.054-.03.055.055,0,0,0-.031.009l-.011.005,0,0A2.044,2.044,0,0,1,9.8,16.617a2.071,2.071,0,0,1,.75-2.807.068.068,0,0,0,.025-.025.072.072,0,0,0-.025-.1,2.072,2.072,0,0,1-.76-2.79c.005-.011.012-.022.018-.032A2.047,2.047,0,0,1,12.6,10.12a.069.069,0,0,0,.032.009.06.06,0,0,0,.045-.018.058.058,0,0,0,.018-.043A2.061,2.061,0,0,1,14.746,8h.006a2.061,2.061,0,0,1,2.05,2.064.066.066,0,0,0,.008.034.061.061,0,0,0,.054.031.073.073,0,0,0,.024,0l.02-.013a2.06,2.06,0,0,1,2.04,3.58.071.071,0,0,0-.023.025.072.072,0,0,0,.026.1,2.07,2.07,0,0,1,.749,2.8l0,0s0,.008-.006.012a2.046,2.046,0,0,1-2.8.745.066.066,0,0,0-.029-.008.062.062,0,0,0-.063.064A2.062,2.062,0,0,1,14.752,19.5Zm-.758-2.851a1.569,1.569,0,0,1,.209.791.558.558,0,0,0,.554.56.557.557,0,0,0,.552-.559,1.563,1.563,0,0,1,1.555-1.569h.008a1.563,1.563,0,0,1,.779.209.545.545,0,0,0,.274.075.551.551,0,0,0,.472-.268v0l0-.009a.566.566,0,0,0-.2-.769,1.571,1.571,0,0,1,0-2.711.568.568,0,0,0,.207-.772.549.549,0,0,0-.734-.218l-.02.013A1.562,1.562,0,0,1,15.3,10.057a.553.553,0,1,0-1.106,0,1.561,1.561,0,0,1-1.552,1.569h-.011a1.57,1.57,0,0,1-.775-.206l-.006,0a.537.537,0,0,0-.274-.074.543.543,0,0,0-.466.258l-.011.021a.567.567,0,0,0,.205.769,1.571,1.571,0,0,1,0,2.711.567.567,0,0,0-.206.769.55.55,0,0,0,.478.279.536.536,0,0,0,.269-.072l.007,0,.005,0a1.562,1.562,0,0,1,2.127.576ZM2.344,17.959C.407,17.31,0,16.121,0,15.238a4.016,4.016,0,0,1,2.183-3.273A9.121,9.121,0,0,1,6.9,10.727c.292,0,.6.014.911.04a.75.75,0,0,1-.13,1.495c-.269-.023-.532-.035-.781-.035-3.092,0-5.4,1.589-5.4,3.011,0,.234,0,.856,1.32,1.3A13.5,13.5,0,0,0,6.9,17c.653,0,1.255-.021,1.788-.062a.75.75,0,1,1,.115,1.5c-.571.044-1.211.067-1.9.067A14.834,14.834,0,0,1,2.344,17.959ZM13.75,13.75a1,1,0,1,1,1,1A1,1,0,0,1,13.75,13.75ZM6.9,9.363H6.876A4.681,4.681,0,0,1,6.873,0h.015a4.681,4.681,0,0,1,.018,9.363Zm-3.2-4.669a3.189,3.189,0,0,0,3.17,3.17H6.9A3.182,3.182,0,0,0,6.889,1.5h-.01A3.185,3.185,0,0,0,3.709,4.694Z" transform="translate(2.25 2.25)" fill="#2c2c2c"/>
</svg>
