<svg id="Icon_Outline_Info-2" data-name="Icon/Outline/Info-2" xmlns="http://www.w3.org/2000/svg" width="24" height="24" viewBox="0 0 24 24">
  <rect id="Container" width="24" height="24" fill="none"/>
  <path id="Info_-_2" data-name="Info - 2" d="M12570.287,21236.213a9.235,9.235,0,0,1-3.225-7.334c0-1.918-.027-3.3-.043-4.322a23.242,23.242,0,0,1,.016-2.414,1.957,1.957,0,0,1,.587-1.316,12.355,12.355,0,0,1,15.729,0,1.948,1.948,0,0,1,.581,1.316,21.565,21.565,0,0,1,.017,2.414c-.017,1.014-.043,2.4-.043,4.322a9.238,9.238,0,0,1-3.225,7.334,7.374,7.374,0,0,1-10.394,0Zm-1.6-14.326c-.192.191-.2.512-.165,2.643.021,1.023.042,2.42.042,4.35a7.809,7.809,0,0,0,2.7,6.193,5.906,5.906,0,0,0,8.454,0,7.793,7.793,0,0,0,2.7-6.193c0-1.93.027-3.33.043-4.35.037-2.131.032-2.451-.16-2.643a10.884,10.884,0,0,0-13.607,0Zm6.05,9.76v-3.9a.749.749,0,1,1,1.5,0v3.9a.749.749,0,0,1-1.5,0Zm.74-6.646a.749.749,0,0,1,0-1.5h.011a.749.749,0,1,1,0,1.5Z" transform="translate(-12563.484 -21216.18)" fill="#2c2c2c"/>
</svg>
