<svg id="Icon_Outline_Plus" data-name="Icon/Outline/Plus" xmlns="http://www.w3.org/2000/svg" width="24" height="24" viewBox="0 0 24 24">
  <rect id="Container" width="24" height="24" fill="none"/>
  <path id="Plus" d="M-7837-3239.251v-6.25h-6.25a.75.75,0,0,1-.75-.75.751.751,0,0,1,.75-.75h6.25v-6.248a.75.75,0,0,1,.75-.75.75.75,0,0,1,.75.75V-3247h6.25a.751.751,0,0,1,.75.75.75.75,0,0,1-.75.75h-6.25v6.25a.75.75,0,0,1-.75.75A.75.75,0,0,1-7837-3239.251Z" transform="translate(7848.25 3258.25)" fill="#2c2c2c"/>
</svg>
