<svg id="Icon_Outline_Share" data-name="Icon/Outline/Share" xmlns="http://www.w3.org/2000/svg" width="24" height="24" viewBox="0 0 24 24">
  <rect id="Container" width="24" height="24" fill="none"/>
  <path id="Share" d="M12.371,16.683a3.119,3.119,0,0,1-.8-2.133l-5.69-2.929a3.889,3.889,0,0,1-2.409.6,3.524,3.524,0,0,1-2.658-.815A3.522,3.522,0,0,1,0,8.75,3.523,3.523,0,0,1,.816,6.093a3.526,3.526,0,0,1,2.657-.815,3.886,3.886,0,0,1,2.409.6l5.69-2.928a3.123,3.123,0,0,1,.8-2.135A3.522,3.522,0,0,1,15.029,0a3.52,3.52,0,0,1,2.656.815A3.526,3.526,0,0,1,18.5,3.472a3.526,3.526,0,0,1-.815,2.657,3.526,3.526,0,0,1-2.657.815,3.528,3.528,0,0,1-2.658-.815A2.727,2.727,0,0,1,11.642,4.6l-4.9,2.524A5.4,5.4,0,0,1,6.944,8.75a5.406,5.406,0,0,1-.206,1.626l4.9,2.524a2.73,2.73,0,0,1,.73-1.53,3.526,3.526,0,0,1,2.657-.815,3.523,3.523,0,0,1,2.656.815,3.527,3.527,0,0,1,.815,2.657,3.524,3.524,0,0,1-.815,2.657,3.522,3.522,0,0,1-2.657.815A3.524,3.524,0,0,1,12.371,16.683Zm1.061-4.252a2.331,2.331,0,0,0-.376,1.6,2.341,2.341,0,0,0,.375,1.6,2.343,2.343,0,0,0,1.6.375,2.337,2.337,0,0,0,1.6-.375,2.338,2.338,0,0,0,.375-1.6,2.342,2.342,0,0,0-.375-1.6,2.336,2.336,0,0,0-1.6-.376A2.337,2.337,0,0,0,13.432,12.431ZM1.877,7.154A2.331,2.331,0,0,0,1.5,8.75a2.341,2.341,0,0,0,.375,1.6,2.343,2.343,0,0,0,1.6.375,2.337,2.337,0,0,0,1.6-.375,2.338,2.338,0,0,0,.375-1.6,2.342,2.342,0,0,0-.375-1.6,2.336,2.336,0,0,0-1.6-.376A2.337,2.337,0,0,0,1.877,7.154ZM13.432,1.877a2.331,2.331,0,0,0-.376,1.6,2.337,2.337,0,0,0,.375,1.6,2.342,2.342,0,0,0,1.6.376,2.342,2.342,0,0,0,1.6-.375A2.338,2.338,0,0,0,17,3.472a2.343,2.343,0,0,0-.375-1.6,2.337,2.337,0,0,0-1.6-.375A2.332,2.332,0,0,0,13.432,1.877Z" transform="translate(2 3.25)" fill="#2c2c2c"/>
</svg>
