<svg id="Icon_Outline_New" data-name="Icon/Outline/New" xmlns="http://www.w3.org/2000/svg" width="24" height="24" viewBox="0 0 24 24">
  <rect id="Container" width="24" height="24" fill="none"/>
  <g id="New">
    <path id="Path_849" data-name="Path 849" d="M21.027,10.7A3.7,3.7,0,0,0,17.64,4.833a2.2,2.2,0,0,1-2.253-1.3,3.7,3.7,0,0,0-6.775,0,2.2,2.2,0,0,1-2.253,1.3A3.7,3.7,0,0,0,2.972,10.7a2.19,2.19,0,0,1,0,2.6,3.7,3.7,0,0,0,3.387,5.867,2.2,2.2,0,0,1,2.253,1.3,3.7,3.7,0,0,0,6.775,0,2.2,2.2,0,0,1,2.253-1.3A3.7,3.7,0,0,0,21.027,13.3a2.193,2.193,0,0,1,0-2.6m-1.21,3.486a2.2,2.2,0,0,1-2.015,3.49,3.7,3.7,0,0,0-3.787,2.187,2.2,2.2,0,0,1-4.031,0,3.684,3.684,0,0,0-3.379-2.209,4.014,4.014,0,0,0-.408.022,2.2,2.2,0,0,1-2.015-3.49,3.686,3.686,0,0,0,0-4.373A2.2,2.2,0,0,1,6.2,6.323,3.69,3.69,0,0,0,9.984,4.136a2.2,2.2,0,0,1,4.031,0A3.69,3.69,0,0,0,17.8,6.323a2.2,2.2,0,0,1,2.015,3.49,3.686,3.686,0,0,0,0,4.373" fill="#2c2c2c"/>
    <path id="Path_850" data-name="Path 850" d="M9.233,9.425a.439.439,0,0,0-.49.505v2.359L7.035,9.748A.646.646,0,0,0,6.49,9.42c-.328,0-.49.182-.49.541v3.783a.445.445,0,0,0,.495.51.445.445,0,0,0,.495-.51V11.431l1.728,2.53a.613.613,0,0,0,.52.293c.333,0,.5-.181.5-.54V9.93a.445.445,0,0,0-.505-.505" fill="#2c2c2c"/>
    <path id="Path_851" data-name="Path 851" d="M13.34,12.189a1.458,1.458,0,0,0-1.551-1.6,1.679,1.679,0,0,0-1.606,1.844,1.721,1.721,0,0,0,1.7,1.9,1.635,1.635,0,0,0,1.339-.6.373.373,0,0,0,.106-.288c0-.282-.152-.409-.349-.409-.338,0-.53.384-1.005.384a.8.8,0,0,1-.823-.747h1.419c.48,0,.773,0,.773-.48M11.2,12.022a.589.589,0,0,1,.6-.591.541.541,0,0,1,.551.591Z" fill="#2c2c2c"/>
    <path id="Path_852" data-name="Path 852" d="M18.083,10.628a.481.481,0,0,0-.5.369l-.414,1.717c-.228-.712-.2-.965-.44-1.677a.576.576,0,0,0-.545-.394.531.531,0,0,0-.506.379l-.474,1.753L14.769,11a.493.493,0,0,0-.495-.359c-.328,0-.48.152-.48.5,0,.071.106.409.874,2.708a.54.54,0,0,0,.541.414.524.524,0,0,0,.53-.4l.45-1.576c.242.707.252.879.48,1.566a.508.508,0,0,0,.5.409.5.5,0,0,0,.49-.394c.687-2,.823-2.445.848-2.556l0,.04a.594.594,0,0,0,.041-.217c0-.338-.1-.495-.46-.495" fill="#2c2c2c"/>
  </g>
</svg>
