<svg id="Icon_Outline_Swap" data-name="Icon/Outline/Swap" xmlns="http://www.w3.org/2000/svg" width="24" height="24" viewBox="0 0 24 24">
  <rect id="Container" width="24" height="24" fill="none"/>
  <g id="Swap">
    <path id="Up" d="M26676.752,40480.5v-14a.751.751,0,0,1,.752-.754c1.311,0,2.785,1.059,4.369,3.121a23.8,23.8,0,0,1,1.91,2.926.743.743,0,0,1-.3,1.016.757.757,0,0,1-1.016-.3,24.04,24.04,0,0,0-1.789-2.734,8.267,8.267,0,0,0-2.428-2.309v13.039a.747.747,0,1,1-1.494,0Z" transform="translate(-26663.125 -40461.5)" fill="#2c2c2c"/>
    <path id="Down" d="M26678.734,40477.93a24.734,24.734,0,0,1-1.9-3.109.745.745,0,1,1,1.33-.672,27.3,27.3,0,0,0,1.8,2.926,8.594,8.594,0,0,0,2.408,2.438V40466.5a.752.752,0,1,1,1.5,0v14a.751.751,0,0,1-.752.75C26681.781,40481.25,26680.35,40480.164,26678.734,40477.93Z" transform="translate(-26673.5 -40461.5)" fill="#2c2c2c"/>
  </g>
</svg>
