<svg id="Icon_Outline_Expand" data-name="Icon/Outline/Expand" xmlns="http://www.w3.org/2000/svg" width="24" height="24" viewBox="0 0 24 24">
  <rect id="Container" width="24" height="24" fill="none"/>
  <path id="Expand" d="M15618.241,18968.924c-1.552-1.551-2.242-3.941-2.242-7.76,0-3.49.566-5.746,1.838-7.309,1.295-1.59,3.342-2.428,6.432-2.637a.749.749,0,1,1,.1,1.494c-2.686.186-4.338.828-5.366,2.09s-1.5,3.281-1.5,6.361c0,3.385.557,5.451,1.8,6.7s3.314,1.8,6.7,1.8c3.085,0,5.113-.482,6.37-1.51s1.905-2.7,2.081-5.391a.749.749,0,0,1,1.5.1c-.2,3.105-1.038,5.156-2.628,6.457-1.562,1.275-3.818,1.848-7.318,1.848C15622.184,18971.168,15619.794,18970.477,15618.241,18968.924Zm7.547-7.574a.76.76,0,0,1,0-1.066l7.678-7.674a7.133,7.133,0,0,0-2.493-.012,18.52,18.52,0,0,0-2.656.559.752.752,0,0,1-.434-1.439,21.04,21.04,0,0,1,2.876-.6c2.228-.291,3.709-.029,4.527.795s1.066,2.3.776,4.527a19.949,19.949,0,0,1-.6,2.867.745.745,0,0,1-.714.533.842.842,0,0,1-.219-.029.756.756,0,0,1-.5-.934,18.61,18.61,0,0,0,.548-2.646,7,7,0,0,0-.027-2.582l-7.7,7.705a.753.753,0,0,1-1.062,0Z" transform="translate(-15614.32 -18948.816)" fill="#2c2c2c"/>
</svg>
