<svg id="Icon_Outline_Bag_money" data-name="Icon/Outline/Bag money" xmlns="http://www.w3.org/2000/svg" width="24" height="24" viewBox="0 0 24 24">
  <rect id="Container" width="24" height="24" fill="none"/>
  <path id="Bag_money" data-name="Bag money" d="M7.75,20.5H7.738c-2.827-.044-6.232-.759-7.307-2.635-.769-1.346-.366-3.307.106-4.715A17.958,17.958,0,0,1,3.269,8.091C4.149,6.953,5.9,5.039,7.734,5h.032c1.833.039,3.585,1.953,4.466,3.091a17.933,17.933,0,0,1,2.732,5.059c.472,1.408.874,3.369.107,4.713-1.077,1.878-4.482,2.593-7.309,2.637ZM4.455,9.009C2.24,11.87.943,15.736,1.733,17.12c.6,1.043,3.127,1.833,6.017,1.88,2.889-.047,5.42-.837,6.018-1.881.789-1.383-.508-5.25-2.722-8.11C9.851,7.466,8.62,6.53,7.75,6.5,6.88,6.53,5.649,7.466,4.455,9.009ZM4.364,4.023a3.3,3.3,0,0,1-.123-2.677C4.933.138,7.093.011,7.738,0h.023c.645.011,2.805.138,3.5,1.345a3.3,3.3,0,0,1-.123,2.678.75.75,0,1,1-1.4-.546c.337-.861.271-1.293.218-1.387A3.236,3.236,0,0,0,7.75,1.5a3.231,3.231,0,0,0-2.207.59c-.053.093-.119.525.219,1.386a.75.75,0,0,1-1.4.546Z" transform="translate(4.25 1.75)" fill="#2c2c2c"/>
</svg>
