<svg id="Icon_Outline_Website" data-name="Icon/Outline/Website" xmlns="http://www.w3.org/2000/svg" width="24" height="24" viewBox="0 0 24 24">
  <rect id="Container" width="24" height="24" fill="none"/>
  <path id="Website" d="M10.749,21.5h0a10.75,10.75,0,0,1,0-21.5h0a10.75,10.75,0,0,1,7.6,18.352,10.682,10.682,0,0,1-7.6,3.148h0ZM8.6,17.541C9.221,19.081,10.024,20,10.749,20h0c.725,0,1.528-.919,2.147-2.459A18.142,18.142,0,0,0,14.009,11.5H7.49A18.144,18.144,0,0,0,8.6,17.541Zm-.659,2.024A9.249,9.249,0,0,1,7.211,18.1,19.7,19.7,0,0,1,5.99,11.5H1.53A9.273,9.273,0,0,0,7.943,19.565ZM14.288,18.1a9.243,9.243,0,0,1-.733,1.464A9.272,9.272,0,0,0,19.969,11.5H15.51A19.7,19.7,0,0,1,14.288,18.1Zm5.68-8.1a9.272,9.272,0,0,0-6.413-8.064A9.243,9.243,0,0,1,14.288,3.4,19.7,19.7,0,0,1,15.51,10Zm-5.96,0A18.143,18.143,0,0,0,12.9,3.959C12.278,2.419,11.475,1.5,10.75,1.5h0c-.725,0-1.528.919-2.147,2.459A18.145,18.145,0,0,0,7.49,10ZM5.989,10A19.7,19.7,0,0,1,7.211,3.4a9.249,9.249,0,0,1,.733-1.464A9.272,9.272,0,0,0,1.53,10Z" transform="translate(1.25 1.25)" fill="#2c2c2c"/>
</svg>
