<svg id="Icon_Outline_Arrow_-_Right_1" data-name="Icon/Outline/Arrow - Right  1" xmlns="http://www.w3.org/2000/svg" width="24" height="24" viewBox="0 0 24 24">
  <rect id="Container" width="24" height="24" fill="none"/>
  <path id="Arrow_-_Down_1" data-name="Arrow - Down 1" d="M7.75,0C6.306,0,4.619,1.237,2.593,3.783A35.375,35.375,0,0,0,.1,7.368.75.75,0,1,0,1.4,8.132a34.482,34.482,0,0,1,2.38-3.427C6.081,1.812,7.323,1.5,7.75,1.5s1.673.313,3.984,3.217A34.366,34.366,0,0,1,14.1,8.132.75.75,0,1,0,15.4,7.368a35.359,35.359,0,0,0-2.488-3.585C10.882,1.237,9.194,0,7.75,0Z" transform="translate(16.25 4.25) rotate(90)" fill="#2c2c2c"/>
</svg>
