<svg id="Icon_Outline_Coin_add" data-name="Icon/Outline/Coin add" xmlns="http://www.w3.org/2000/svg" width="24" height="24" viewBox="0 0 24 24">
  <rect id="Container" width="24" height="24" fill="none"/>
  <path id="Add" d="M0,10.048a10.048,10.048,0,1,1,20.1,0,10.14,10.14,0,0,1-.211,2.057.75.75,0,0,1-1.469-.305,8.549,8.549,0,1,0-8.368,6.8,8.646,8.646,0,0,0,1.84-.2.75.75,0,0,1,.32,1.465A10.056,10.056,0,0,1,0,10.048Zm15.773,9V17.324H14a.75.75,0,1,1,0-1.5h1.771V14.1a.75.75,0,0,1,1.5,0v1.724h1.773a.75.75,0,1,1,0,1.5H17.274v1.722a.75.75,0,0,1-1.5,0Zm-3.209-4.353-2.54-2.511L7.535,14.644A.75.75,0,1,1,6.48,13.577l2.477-2.451-.967-.956A2.9,2.9,0,0,1,7.96,6.1l.034-.035c.02-.021.04-.041.06-.06a2.89,2.89,0,0,1,4.052,4.122l-1.015,1,2.528,2.5a.75.75,0,1,1-1.055,1.066ZM9.1,7.076l-.015.014L9.073,7.1l-.04.042a1.394,1.394,0,0,0,.014,1.961l.978.967,1.028-1.017A1.39,1.39,0,0,0,9.1,7.076Z" transform="translate(1.889 1.891)" fill="#2c2c2c"/>
</svg>
