<svg id="Icon_Outline_Delete" data-name="Icon/Outline/Delete" xmlns="http://www.w3.org/2000/svg" width="24" height="24" viewBox="0 0 24 24">
  <rect id="Container" width="24" height="24" fill="none"/>
  <path id="Delete" d="M2.906,18.322c-1.588-1.62-1.535-4.275-1.463-7.95.017-.879.035-1.789.035-2.783a.75.75,0,0,1,1.5,0c0,1.008-.018,1.925-.036,2.813-.067,3.433-.112,5.7,1.035,6.87.811.827,2.348,1.211,4.837,1.211s4.034-.386,4.847-1.215c1.155-1.176,1.111-3.458,1.046-6.91-.016-.874-.033-1.778-.033-2.768a.75.75,0,1,1,1.5,0c0,.977.017,1.873.033,2.74.07,3.694.121,6.363-1.474,7.988-1.13,1.151-2.956,1.665-5.918,1.665S4.033,19.472,2.906,18.322ZM5.336,5.265H.75a.75.75,0,0,1,0-1.5H4.637a4.174,4.174,0,0,1,.938-2.488A4.091,4.091,0,0,1,8.825,0a4.1,4.1,0,0,1,3.251,1.278,4.178,4.178,0,0,1,.937,2.488H16.9a.75.75,0,1,1,0,1.5H12.29a.749.749,0,0,1-.079,0H5.461l-.062,0Zm6.173-1.5a2.622,2.622,0,0,0-.572-1.509A2.684,2.684,0,0,0,8.825,1.5a2.683,2.683,0,0,0-2.112.755,2.628,2.628,0,0,0-.573,1.51Z" transform="translate(3.175 2.008)" fill="#2c2c2c"/>
</svg>
