<svg id="Icon_Outline_Coin" data-name="Icon/Outline/Coin" xmlns="http://www.w3.org/2000/svg" width="24" height="24" viewBox="0 0 24 24">
  <rect id="Container" width="24" height="24" fill="none"/>
  <path id="Coin" d="M-1721.727,20601.477a10.682,10.682,0,0,1-3.149-7.6,10.682,10.682,0,0,1,3.149-7.6,10.7,10.7,0,0,1,7.6-3.148,10.7,10.7,0,0,1,7.6,3.148,10.682,10.682,0,0,1,3.149,7.6,10.682,10.682,0,0,1-3.149,7.6,10.7,10.7,0,0,1-7.6,3.148A10.7,10.7,0,0,1-1721.727,20601.477Zm-1.65-7.6a9.265,9.265,0,0,0,9.251,9.252,9.265,9.265,0,0,0,9.251-9.252,9.265,9.265,0,0,0-9.251-9.252A9.265,9.265,0,0,0-1723.376,20593.875Zm11.961,4.908-2.735-2.705-2.684,2.652a.746.746,0,0,1-1.06-.006.749.749,0,0,1,.005-1.059l2.673-2.643-1.065-1.051a3.028,3.028,0,0,1-.031-4.266l.041-.047a3.018,3.018,0,0,1,2.151-.91,3,3,0,0,1,2.151.885,3.033,3.033,0,0,1,.005,4.281l-1.122,1.107,2.725,2.693a.747.747,0,0,1,.005,1.061.738.738,0,0,1-.533.223A.744.744,0,0,1-1711.416,20598.783Zm-3.785-8.072-.041.041a1.536,1.536,0,0,0,.016,2.156l1.076,1.061,1.127-1.117a1.531,1.531,0,0,0-.005-2.156,1.529,1.529,0,0,0-1.076-.445h-.01A1.519,1.519,0,0,0-1715.2,20590.711Z" transform="translate(1726 -20582)" fill="#2c2c2c"/>
</svg>
