<svg id="Icon_Fill_Wallet" data-name="Icon/Fill/Wallet" xmlns="http://www.w3.org/2000/svg" width="23.9" height="23.9" viewBox="0 0 23.9 23.9">
  <rect id="Container" width="23.9" height="23.9" fill="none"/>
  <path id="Wallet" d="M0,8.529C0,2.129,2.33,0,9.3,0c5.531,0,8.141,1.34,8.98,5.081H14.57a3.315,3.315,0,0,0,0,6.629h3.77c-.78,3.96-3.37,5.36-9.041,5.36C2.33,17.069,0,14.939,0,8.529Zm4.14-4.11a.749.749,0,0,0,.75.751H8.95a.75.75,0,1,0,0-1.5H4.89A.756.756,0,0,0,4.14,4.419ZM18.46,10.21H14.57a1.815,1.815,0,0,1,0-3.631h3.86a.218.218,0,0,0,.079-.01c.06.6.09,1.25.09,1.96,0,.6-.02,1.16-.059,1.69A.225.225,0,0,0,18.46,10.21Zm-4.5-1.88a.749.749,0,0,0,.75.75h.3a.75.75,0,0,0,0-1.5h-.3A.756.756,0,0,0,13.96,8.33Z" transform="translate(2.65 3.42)" fill="#2c2c2c"/>
</svg>
