<svg id="Icon_Fill_Arrow_-_Up_3" data-name="Icon/Fill/Arrow - Up 3" xmlns="http://www.w3.org/2000/svg" width="24" height="24" viewBox="0 0 24 24">
  <rect id="Container" width="24" height="24" fill="none"/>
  <g id="Arrow_up_3" data-name="Arrow up 3" transform="translate(6 7)">
    <path id="Arrow_-_Down_2" data-name="Arrow - Down 2" d="M4.869.369c-.058.057-.306.27-.51.469a21.69,21.69,0,0,0-4.024,5.8A4.617,4.617,0,0,0,0,7.812a1.933,1.933,0,0,0,.218.9,1.874,1.874,0,0,0,.9.795,9.84,9.84,0,0,0,1.064.256A23.979,23.979,0,0,0,5.992,10a27.724,27.724,0,0,0,3.689-.213,8.495,8.495,0,0,0,1.327-.341A1.785,1.785,0,0,0,12,7.868V7.812a4.879,4.879,0,0,0-.409-1.321A21.69,21.69,0,0,0,7.625.823,5.66,5.66,0,0,0,7.071.341,1.783,1.783,0,0,0,6.007,0,1.875,1.875,0,0,0,4.869.369" fill="#2c2c2c"/>
  </g>
</svg>
