<svg id="Icon_Fill_Bag" data-name="Icon/Fill/Bag" xmlns="http://www.w3.org/2000/svg" width="24" height="24" viewBox="0 0 24 24">
  <rect id="Container" width="24" height="24" fill="none"/>
  <path id="Cart" d="M-9793.082-216.543c-1.166-1.17-1.709-2.96-2.469-5.765-.607-2.252-.46-3.924.447-5.109a5.619,5.619,0,0,1,3.218-1.856.74.74,0,0,1-.023-.187v-.02a5.075,5.075,0,0,1,5.091-5.05,5.075,5.075,0,0,1,5.067,5.069.744.744,0,0,1-.023.188,5.622,5.622,0,0,1,3.215,1.855c.909,1.187,1.055,2.857.447,5.109-.755,2.805-1.3,4.592-2.466,5.765-1.2,1.21-3.015,1.7-6.252,1.7S-9791.88-215.334-9793.082-216.543Zm8.4-8.413a.751.751,0,0,0,.75.75h.047a.751.751,0,0,0,.75-.75.751.751,0,0,0-.75-.75h-.047A.751.751,0,0,0-9784.687-224.956Zm-5.834,0a.751.751,0,0,0,.75.75h.049a.751.751,0,0,0,.75-.75.751.751,0,0,0-.75-.75h-.049A.751.751,0,0,0-9790.521-224.956Zm7.269-4.6a3.575,3.575,0,0,0-3.568-3.472,3.574,3.574,0,0,0-3.588,3.471,25.932,25.932,0,0,1,3.578-.216A25.92,25.92,0,0,1-9783.252-229.559Z" transform="translate(9798.832 236.31)" fill="#2c2c2c"/>
</svg>
