<svg id="Icon_Fill_Home" data-name="Icon/Fill/Home" xmlns="http://www.w3.org/2000/svg" width="24" height="24" viewBox="0 0 24 24">
  <rect id="Container" width="24" height="24" fill="none"/>
  <path id="Home" d="M-9785.829-214c-3.872,0-6.209,0-7.652-1.036-1.409-1.011-1.933-2.976-1.933-7.251,0-4.831.459-5.235,2.665-7.178.366-.322.78-.687,1.254-1.126.225-.18.469-.388.727-.607l.061-.051c1.366-1.162,3.235-2.751,4.852-2.751,1.644,0,3.564,1.62,4.967,2.8l.02.017c.252.213.49.414.71.59.474.439.888.8,1.254,1.127,2.206,1.943,2.665,2.348,2.665,7.178,0,4.274-.523,6.239-1.933,7.251C-9779.618-214-9781.956-214-9785.829-214Zm-2.905-6.615a.751.751,0,0,0-.75.75.751.751,0,0,0,.75.75h5.813a.751.751,0,0,0,.75-.75.751.751,0,0,0-.75-.75Z" transform="translate(9797.828 236)" fill="#2c2c2c"/>
</svg>
