<svg id="Icon_Fill_Offer" data-name="Icon/Fill/Offer" xmlns="http://www.w3.org/2000/svg" width="24" height="24" viewBox="0 0 24 24">
  <rect id="Container" width="24" height="24" fill="none"/>
  <path id="Fire" d="M8.106,21.337a8.8,8.8,0,0,1-2.539-.376,8.64,8.64,0,0,1-3.752-2.278A8.873,8.873,0,0,1-.512,10.916a8.649,8.649,0,0,1,1.881-3.97A11.972,11.972,0,0,1,3.3,5.213l.17-.132C5.119,3.792,6.71,2.355,6.455.205a1.115,1.115,0,0,1,.139-.874.54.54,0,0,1,.427-.168,1.1,1.1,0,0,1,.134.009A3.33,3.33,0,0,1,8.694.125L8.824.24c2.484,2.2,4.411,5.734,3.118,8.671L14,7.467a.961.961,0,0,1,1.335.229,8.031,8.031,0,0,1,1.14,2.118,8.693,8.693,0,0,1,.232,4.5A8.764,8.764,0,0,1,8.106,21.337Zm-3.529-7.02a.753.753,0,0,0-.17.02l-.01,0-.015,0a.748.748,0,0,0-.535.895,2.9,2.9,0,0,0,2.826,2.454,3.216,3.216,0,0,0,.5-.04.75.75,0,0,0-.118-1.491.761.761,0,0,0-.12.01,1.61,1.61,0,0,1-.255.021A1.438,1.438,0,0,1,5.306,14.9.746.746,0,0,0,4.577,14.317Z" transform="translate(3.885 1.75)" fill="#2c2c2c"/>
</svg>
