<svg id="Icon_Fill_Motorcycle" data-name="Icon/Fill/Motorcycle" xmlns="http://www.w3.org/2000/svg" width="24" height="24" viewBox="0 0 24 24">
  <rect id="Container" width="24" height="24" fill="none"/>
  <path id="Motorcycle" d="M14699.592,21680a3,3,0,0,1-3-3v-3.5a3,3,0,0,1,3-3h.158a2.993,2.993,0,0,1,3,3v3.5a2.992,2.992,0,0,1-3,3Zm4.657-6.066v-.436a4.512,4.512,0,0,0-4.5-4.5h-.158a4.513,4.513,0,0,0-4.5,4.5v.453a.281.281,0,0,1-.381.26,2.259,2.259,0,0,1-1.431-2.105v-3.607a3.541,3.541,0,0,1,.125-.93,2.916,2.916,0,0,1,4.282-1.639,3.959,3.959,0,0,0,2.063.572,4.038,4.038,0,0,0,1.882-.469,2.966,2.966,0,0,1,4.43,2.41v3.7a2.254,2.254,0,0,1-1.388,2.078.312.312,0,0,1-.116.023A.309.309,0,0,1,14704.249,21673.934Zm-7-11.432a2.5,2.5,0,1,1,2.5,2.5A2.5,2.5,0,0,1,14697.252,21662.5Zm6.5.746a.748.748,0,1,1,0-1.5h2a.748.748,0,1,1,0,1.5Zm-10,0a.748.748,0,1,1,0-1.5h2a.748.748,0,1,1,0,1.5Z" transform="translate(-14687.75 -21658)" fill="#2c2c2c"/>
</svg>
