<svg id="Icon_Fill_Graph" data-name="Icon/Fill/Graph" xmlns="http://www.w3.org/2000/svg" width="24" height="24" viewBox="0 0 24 24">
  <rect id="Container" width="24" height="24" fill="none"/>
  <path id="Graph" d="M12577,21098.605c0-5.3,5.229-8.693,6.728-7.193.863.863-.106,4.926,1.44,6.473.837.836,2.511.789,4.042.742,1.292-.043,2.484-.086,2.982.412,1.08,1.086-1.791,7.268-7.49,7.268A7.7,7.7,0,0,1,12577,21098.605Zm10.563-3.242c-.821-.826-.54-5.949.169-6.764,2.257-2.6,9.646,3.982,6.786,6.234-.745.588-2.968.969-4.726.969A3.806,3.806,0,0,1,12587.562,21095.363Z" transform="translate(-12574.082 -21085.152)" fill="#2c2c2c"/>
</svg>
