<svg id="Icon_Fill_Bell_ring" data-name="Icon/Fill/Bell ring" xmlns="http://www.w3.org/2000/svg" width="24" height="24" viewBox="0 0 24 24">
  <rect id="Container" width="24" height="24" fill="none"/>
  <path id="Bell_ring" data-name="Bell ring" d="M14977.3,22098.252h-19.849c-.952,0-1.45-1.15-1.45-2.285a2.985,2.985,0,0,1,.357-1.5,1.238,1.238,0,0,1,1.093-.678h19.849c.96,0,1.4,1.156,1.4,2.229S14978.258,22098.252,14977.3,22098.252Zm-1.009-6.045H14958.4a1.178,1.178,0,0,1-1.132-1.48,10.258,10.258,0,0,1,9.882-7.895c.066,0,.134,0,.2,0s.134,0,.2,0a10.224,10.224,0,0,1,9.849,7.895,1.17,1.17,0,0,1-1.114,1.48Zm-12.146-5.539a3,3,0,0,0-2.086.8,3.347,3.347,0,0,0-1,2.213.743.743,0,0,0,.683.811h.072a.738.738,0,0,0,.737-.684,1.588,1.588,0,0,1,1.61-1.637c.028,0,.058,0,.087,0h.028a.752.752,0,0,0,.754-.721v-.029a.742.742,0,0,0-.722-.748C14964.25,22086.67,14964.2,22086.668,14964.144,22086.668Zm3.954-4.916h-1.5a.751.751,0,1,1,0-1.5h1.5a.751.751,0,0,1,0,1.5Z" transform="translate(-14955.348 -22077.25)" fill="#2c2c2c"/>
</svg>
