<svg id="Icon_Fill_Shop" data-name="Icon/Fill/Shop" xmlns="http://www.w3.org/2000/svg" width="24" height="24" viewBox="0 0 24 24">
  <rect id="Conatiner" width="24" height="24" fill="none"/>
  <path id="Shop" d="M.222,10.277v-.019a1.556,1.556,0,0,1,1.559-1.55H16.236a1.556,1.556,0,0,1,1.56,1.55v.019c0,7.6-1.8,7.6-8.791,7.6S.222,17.878.222,10.277ZM14.461,6.42,12.211,0h4.14l1.291,2.33a2.76,2.76,0,0,1,.045,2.581A2.894,2.894,0,0,1,15.075,6.42Zm-7.353,0A1.3,1.3,0,0,1,5.9,4.665L7.671,0h2.951l1.639,4.7A1.3,1.3,0,0,1,11.038,6.42Zm-4.377,0a2.765,2.765,0,0,1-2.3-1.24,2.861,2.861,0,0,1,0-3.02L1.681,0h4.38L3.622,6.42Z" transform="translate(3.019 3.061)" fill="#2c2c2c"/>
</svg>
