<svg id="icon_Fill_leg_chicken" data-name="icon/Fill/leg chicken" xmlns="http://www.w3.org/2000/svg" width="24" height="24" viewBox="0 0 24 24">
  <rect id="Container" width="24" height="24" fill="none"/>
  <path id="eg_chicken" data-name="eg chicken" d="M7.379,15.026c.323.862-1.68,1.59-1.68,1.59a1.1,1.1,0,0,0-.249,1.107,1.486,1.486,0,0,1,.08.548,1.66,1.66,0,0,1-3.321,0,.56.56,0,0,0-.548-.548,1.66,1.66,0,0,1,0-3.321,1.709,1.709,0,0,1,.548.09,1.1,1.1,0,0,0,1.107-.259s.837-1.895,1.7-1.57a5.032,5.032,0,0,1,2.363,2.363M19.473,4.191A6.644,6.644,0,0,0,10.848.472a6.542,6.542,0,0,0-2.722,2C5.732,5.348,7.038,7.7,6.2,9.616a1.785,1.785,0,0,0,.309,2L8.394,13.5a1.766,1.766,0,0,0,2,.3c1.895-.838,4.188.419,7.06-1.974a6.641,6.641,0,0,0,2.014-7.629m-3.68,5.754a.06.06,0,0,1-.04.01.756.756,0,0,1-.967-.389l-.01-.02a.757.757,0,0,1,.419-.977,1.406,1.406,0,0,0,1.027-1.705c-.01-.03-.02-.06-.03-.1a.749.749,0,0,1,1.426-.459,2.884,2.884,0,0,1-1.825,3.64" transform="translate(2.028 2.034)" fill="#2c2c2c"/>
</svg>
