<svg id="Icon_Fill_Heart" data-name="Icon/Fill/Heart" xmlns="http://www.w3.org/2000/svg" width="24" height="24" viewBox="0 0 24 24">
  <rect id="Container" width="24" height="24" fill="none"/>
  <path id="Heart" d="M9.5,16.972a9.924,9.924,0,0,1-4.528-2.024A12.291,12.291,0,0,1,.372,8.9,7.879,7.879,0,0,1,.5,3.741,5.7,5.7,0,0,1,4.071.249,5.014,5.014,0,0,1,5.614.009,4.727,4.727,0,0,1,9.5,1.939,4.449,4.449,0,0,1,13.314,0a5.253,5.253,0,0,1,1.607.249,5.713,5.713,0,0,1,3.573,3.492A7.872,7.872,0,0,1,18.626,8.9a12.164,12.164,0,0,1-4.578,6.029A10,10,0,0,1,9.5,16.972ZM13.237,3.264a.75.75,0,0,0-.076,1.5,1.411,1.411,0,0,1,1.244,1.651.752.752,0,0,0,.725.775h.026a.746.746,0,0,0,.749-.725,2.888,2.888,0,0,0-2.59-3.193A.76.76,0,0,0,13.237,3.264Z" transform="translate(2.502 3.591)" fill="#2c2c2c"/>
</svg>
