<svg id="Icon_Fill_Admin" data-name="Icon/Fill/Admin" xmlns="http://www.w3.org/2000/svg" width="24" height="24" viewBox="0 0 24 24">
  <rect id="Container" width="24" height="24" fill="none"/>
  <path id="Admin" d="M12.669,16.69a.808.808,0,0,0-.11-.41.816.816,0,0,0-1.11-.3l-.01.01a1.31,1.31,0,0,1-1.291-2.281.829.829,0,0,0,.291-.3.816.816,0,0,0-.291-1.12,1.318,1.318,0,0,1-.48-1.79l.01-.01a1.293,1.293,0,0,1,1.77-.471.866.866,0,0,0,.41.111.816.816,0,0,0,.81-.821,1.3,1.3,0,0,1,2.6,0,.817.817,0,0,0,1.22.71l.01-.01a1.31,1.31,0,0,1,1.29,2.281.921.921,0,0,0-.29.3.817.817,0,0,0,.29,1.12,1.311,1.311,0,0,1,.481,1.79l-.01.01a1.293,1.293,0,0,1-1.77.471.869.869,0,0,0-.41-.111.815.815,0,0,0-.81.82,1.3,1.3,0,1,1-2.6,0Zm.3-3.69a1,1,0,1,0,1-1A1,1,0,0,0,12.97,13ZM0,14.5c0-2,2.73-3.74,5.97-3.74.227,0,.451.009.671.024A1.477,1.477,0,0,1,8,12.379,5.879,5.879,0,0,0,7.97,13a6.041,6.041,0,0,0,.325,1.962,1.514,1.514,0,0,1-1.359,2.022C6.62,16.995,6.3,17,5.97,17,2.75,17,0,16.5,0,14.5ZM6.1,7.863a3.931,3.931,0,1,1,.028,0Z" transform="translate(3.03 3)" fill="#2c2c2c"/>
</svg>
